<svg width="20" height="19" viewBox="0 0 20 19" fill="none" xmlns="http://www.w3.org/2000/svg">
<path d="M19.3625 6.51451C18.0583 3.00951 14.8358 0.478679 11.1542 0.0653453C8.26417 -0.257155 5.48667 0.621179 3.33667 2.54285C2.2877 3.48164 1.44838 4.63099 0.873459 5.91595C0.298535 7.20091 0.000912959 8.59263 0 10.0003C0 12.5612 1.05083 15.1153 2.8825 17.007C3.69833 17.8503 4.875 18.3337 6.11083 18.3337H13.8875C15.1275 18.3337 16.3108 17.8445 17.1342 16.9912C19.86 14.1612 20.715 10.1462 19.3625 6.51451ZM16.5342 16.412C15.8667 17.1037 14.9017 17.5003 13.8867 17.5003H6.11083C5.09917 17.5003 4.14083 17.1095 3.48167 16.4278C1.79833 14.6895 0.833333 12.347 0.833333 10.0003C0.833333 7.39368 1.94833 4.90285 3.89333 3.16368C5.56458 1.65711 7.7366 0.826262 9.98667 0.832845C10.3425 0.832845 10.7008 0.852845 11.0625 0.893679C14.4342 1.27201 17.3858 3.59201 18.5817 6.80618C19.8208 10.1345 19.0358 13.8153 16.5342 16.412ZM14.8775 5.12201C14.7994 5.0439 14.6934 5.00002 14.5829 5.00002C14.4724 5.00002 14.3665 5.0439 14.2883 5.12201L10.8408 8.56951C10.587 8.41629 10.2965 8.33452 10 8.33285C9.08083 8.33285 8.33333 9.08035 8.33333 9.99951C8.33333 10.9187 9.08083 11.6662 10 11.6662C10.9192 11.6662 11.6667 10.9187 11.6667 9.99951C11.6667 9.69118 11.5767 9.40618 11.43 9.15868L14.8775 5.71118C14.9556 5.63304 14.9995 5.52708 14.9995 5.4166C14.9995 5.30611 14.9556 5.20015 14.8775 5.12201ZM9.99917 10.8337C9.77815 10.8337 9.56619 10.7459 9.40991 10.5896C9.25363 10.4333 9.16583 10.2214 9.16583 10.0003C9.16583 9.77933 9.25363 9.56737 9.40991 9.41109C9.56619 9.25481 9.77815 9.16701 9.99917 9.16701C10.2202 9.16701 10.4321 9.25481 10.5884 9.41109C10.7447 9.56737 10.8325 9.77933 10.8325 10.0003C10.8325 10.2214 10.7447 10.4333 10.5884 10.5896C10.4321 10.7459 10.2202 10.8337 9.99917 10.8337ZM16.1108 7.33368C16.4787 8.17449 16.6677 9.0826 16.6658 10.0003C16.6669 11.6407 16.0621 13.2236 14.9675 14.4453C14.8934 14.5272 14.79 14.5764 14.6799 14.5823C14.5697 14.5883 14.4616 14.5504 14.3792 14.477C14.297 14.4032 14.2474 14.2997 14.2415 14.1894C14.2356 14.0791 14.2737 13.9709 14.3475 13.8887C15.3049 12.8199 15.8337 11.4352 15.8325 10.0003C15.8325 9.18868 15.6692 8.40451 15.3475 7.66701C15.3072 7.56649 15.3077 7.45423 15.3488 7.35404C15.3898 7.25384 15.4683 7.17357 15.5675 7.13023C15.6668 7.08689 15.779 7.0839 15.8804 7.12187C15.9818 7.15985 16.0645 7.23582 16.1108 7.33368ZM9.99917 4.16701C6.78333 4.16701 4.16583 6.78451 4.16583 10.0003C4.16583 11.4387 4.69333 12.8195 5.65083 13.8887C5.68838 13.9292 5.7175 13.9768 5.73647 14.0287C5.75545 14.0806 5.76391 14.1358 5.76137 14.191C5.75883 14.2462 5.74533 14.3003 5.72166 14.3503C5.698 14.4002 5.66463 14.4449 5.62351 14.4819C5.58239 14.5188 5.53434 14.5471 5.48215 14.5653C5.42997 14.5835 5.37468 14.5911 5.31953 14.5877C5.26437 14.5843 5.21044 14.57 5.16088 14.5455C5.11132 14.5211 5.06711 14.487 5.03083 14.4453C3.93626 13.2236 3.33146 11.6407 3.3325 10.0003C3.3325 6.32451 6.32333 3.33368 9.99917 3.33368C10.9258 3.33368 11.8225 3.52035 12.6658 3.88868C12.7637 3.93504 12.8397 4.01769 12.8776 4.1191C12.9156 4.22051 12.9126 4.33273 12.8693 4.43197C12.8259 4.53121 12.7457 4.60968 12.6455 4.65075C12.5453 4.69183 12.433 4.69228 12.3325 4.65201C11.5967 4.33053 10.8021 4.16537 9.99917 4.16701Z" fill="white"/>
</svg>
