<svg width="16" height="15" viewBox="0 0 16 15" fill="none" xmlns="http://www.w3.org/2000/svg">
<path d="M15.49 5.21161C14.4467 2.40761 11.8687 0.382943 8.92333 0.0522762C6.61133 -0.205724 4.38933 0.496943 2.66933 2.03428C1.83016 2.78531 1.15871 3.70479 0.698767 4.73276C0.238828 5.76073 0.000730367 6.8741 0 8.00028C0 10.0489 0.840667 12.0923 2.306 13.6056C2.95867 14.2803 3.9 14.6669 4.88867 14.6669H11.11C12.102 14.6669 13.0487 14.2756 13.7073 13.5929C15.888 11.3289 16.572 8.11694 15.49 5.21161ZM13.2273 13.1296C12.6933 13.6829 11.9213 14.0003 11.1093 14.0003H4.88867C4.07933 14.0003 3.31267 13.6876 2.78533 13.1423C1.43867 11.7516 0.666667 9.87761 0.666667 8.00028C0.666667 5.91494 1.55867 3.92228 3.11467 2.53094C4.45166 1.32569 6.18928 0.661009 7.98933 0.666276C8.274 0.666276 8.56067 0.682276 8.85 0.714943C11.5473 1.01761 13.9087 2.87361 14.8653 5.44494C15.8567 8.10761 15.2287 11.0523 13.2273 13.1296ZM11.902 4.09761C11.8395 4.03512 11.7547 4.00001 11.6663 4.00001C11.5779 4.00001 11.4932 4.03512 11.4307 4.09761L8.67267 6.85561C8.4696 6.73303 8.23719 6.66761 8 6.66628C7.26467 6.66628 6.66667 7.26428 6.66667 7.99961C6.66667 8.73494 7.26467 9.33294 8 9.33294C8.73533 9.33294 9.33333 8.73494 9.33333 7.99961C9.33333 7.75294 9.26133 7.52494 9.144 7.32694L11.902 4.56894C11.9645 4.50643 11.9996 4.42166 11.9996 4.33328C11.9996 4.24489 11.9645 4.16012 11.902 4.09761ZM7.99933 8.66694C7.82252 8.66694 7.65295 8.59671 7.52793 8.47168C7.4029 8.34666 7.33267 8.17709 7.33267 8.00028C7.33267 7.82347 7.4029 7.6539 7.52793 7.52887C7.65295 7.40385 7.82252 7.33361 7.99933 7.33361C8.17614 7.33361 8.34571 7.40385 8.47074 7.52887C8.59576 7.6539 8.666 7.82347 8.666 8.00028C8.666 8.17709 8.59576 8.34666 8.47074 8.47168C8.34571 8.59671 8.17614 8.66694 7.99933 8.66694ZM12.8887 5.86694C13.1829 6.53959 13.3341 7.26608 13.3327 8.00028C13.3335 9.31255 12.8497 10.5789 11.974 11.5563C11.9148 11.6217 11.832 11.6611 11.7439 11.6659C11.6557 11.6706 11.5693 11.6403 11.5033 11.5816C11.4376 11.5225 11.398 11.4398 11.3932 11.3515C11.3885 11.2633 11.419 11.1767 11.478 11.1109C12.2439 10.2559 12.667 9.14816 12.666 8.00028C12.666 7.35094 12.5353 6.72361 12.278 6.13361C12.2458 6.05319 12.2461 5.96339 12.279 5.88323C12.3119 5.80307 12.3746 5.73885 12.454 5.70419C12.5334 5.66952 12.6232 5.66712 12.7043 5.6975C12.7855 5.72788 12.8516 5.78865 12.8887 5.86694ZM7.99933 3.33361C5.42667 3.33361 3.33267 5.42761 3.33267 8.00028C3.33267 9.15094 3.75467 10.2556 4.52067 11.1109C4.55071 11.1434 4.574 11.1815 4.58918 11.223C4.60436 11.2645 4.61113 11.3086 4.6091 11.3528C4.60706 11.397 4.59626 11.4403 4.57733 11.4802C4.5584 11.5202 4.5317 11.5559 4.49881 11.5855C4.46591 11.615 4.42747 11.6377 4.38572 11.6523C4.34397 11.6668 4.29975 11.6729 4.25562 11.6702C4.2115 11.6674 4.16835 11.656 4.1287 11.6364C4.08905 11.6169 4.05369 11.5896 4.02467 11.5563C3.14901 10.5789 2.66517 9.31255 2.666 8.00028C2.666 5.05961 5.05867 2.66694 7.99933 2.66694C8.74067 2.66694 9.458 2.81628 10.1327 3.11094C10.211 3.14804 10.2717 3.21415 10.3021 3.29528C10.3325 3.37641 10.3301 3.46618 10.2954 3.54557C10.2608 3.62497 10.1965 3.68774 10.1164 3.7206C10.0362 3.75346 9.94642 3.75382 9.866 3.72161C9.27736 3.46442 8.64171 3.3323 7.99933 3.33361Z" fill="#1E293B"/>
</svg>
