<svg width="14" height="14" viewBox="0 0 14 14" fill="none" xmlns="http://www.w3.org/2000/svg">
<path d="M11.8562 3.1325L10.8675 2.14375C10.3425 1.61875 9.48938 1.61875 8.96438 2.14375L7.30625 3.80625L2.41063 8.6975C1.98188 9.12625 1.75 9.69063 1.75 10.2944V11.8125C1.75 12.0531 1.94687 12.25 2.1875 12.25H3.70563C4.30938 12.25 4.87375 12.0138 5.3025 11.5894L10.1981 6.69813L11.8562 5.03562C12.11 4.78188 12.25 4.445 12.25 4.08625C12.25 3.7275 12.11 3.39062 11.8562 3.13688V3.1325ZM4.68125 10.9681C4.41875 11.2306 4.07313 11.375 3.70563 11.375H2.625V10.2944C2.625 9.92688 2.76937 9.57687 3.03187 9.31875L7.61687 4.73812L9.27063 6.39187L4.68563 10.9769L4.68125 10.9681ZM11.2394 4.41438L9.89188 5.76625L8.23812 4.1125L9.58562 2.76063C9.76937 2.57687 10.0669 2.57687 10.2506 2.76063L11.2394 3.74937C11.3269 3.83687 11.375 3.955 11.375 4.08187C11.375 4.20875 11.3269 4.3225 11.2394 4.41438ZM11.375 11.375H7C6.75938 11.375 6.5625 11.5719 6.5625 11.8125C6.5625 12.0531 6.75938 12.25 7 12.25H11.375C11.6156 12.25 11.8125 12.0531 11.8125 11.8125C11.8125 11.5719 11.6156 11.375 11.375 11.375Z" fill="#1E293B"/>
</svg>
