<svg width="20" height="20" viewBox="0 0 20 20" fill="none" xmlns="http://www.w3.org/2000/svg">
<path d="M15.6243 8.12479C15.4586 8.12479 15.2996 8.05895 15.1824 7.94173C15.0652 7.82452 14.9993 7.66555 14.9993 7.49979C14.9993 4.94167 13.0071 2.75479 10.4634 2.52104C7.91371 2.28636 5.54777 4.07073 5.08277 6.58386C5.02692 6.88597 4.99889 7.19256 4.99902 7.49979C4.99902 7.66555 4.93318 7.82452 4.81597 7.94173C4.69876 8.05895 4.53978 8.12479 4.37402 8.12479C4.20826 8.12479 4.04929 8.05895 3.93208 7.94173C3.81487 7.82452 3.74902 7.66555 3.74902 7.49979C3.74902 7.11511 3.78402 6.73042 3.8534 6.35636C4.43465 3.21479 7.38652 0.981668 10.5781 1.27604C13.7584 1.56854 16.2493 4.30229 16.2493 7.49979C16.2493 7.66555 16.1835 7.82452 16.0663 7.94173C15.9491 8.05895 15.7901 8.12479 15.6243 8.12479ZM15.6243 15.6248C15.4586 15.6248 15.2996 15.5589 15.1824 15.4417C15.0652 15.3245 14.9993 15.1656 14.9993 14.9998C14.9993 14.834 15.0652 14.6751 15.1824 14.5579C15.2996 14.4406 15.4586 14.3748 15.6243 14.3748C16.2393 14.3748 16.6193 13.9539 16.7696 13.5598C16.9193 13.1679 16.9162 12.6029 16.4578 12.1929C16.3966 12.1382 16.3468 12.072 16.3112 11.9981C16.2757 11.9241 16.255 11.8439 16.2504 11.7619C16.2459 11.68 16.2575 11.598 16.2846 11.5205C16.3117 11.4431 16.3539 11.3717 16.4086 11.3106C16.4633 11.2494 16.5295 11.1996 16.6034 11.164C16.6774 11.1285 16.7576 11.1078 16.8395 11.1032C16.9215 11.0987 17.0035 11.1103 17.0809 11.1374C17.1584 11.1645 17.2297 11.2067 17.2909 11.2614C18.0584 11.9476 18.3121 13.0251 17.9371 14.0057C17.5615 14.9892 16.6537 15.6248 15.6243 15.6248Z" fill="#2563EB"/>
<path d="M15.6245 9.55719C15.4588 9.55719 15.2998 9.49134 15.1826 9.37413C15.0654 9.25692 14.9995 9.09795 14.9995 8.93219V7.5C14.9995 7.33424 15.0654 7.17527 15.1826 7.05806C15.2998 6.94085 15.4588 6.875 15.6245 6.875C15.7903 6.875 15.9492 6.94085 16.0665 7.05806C16.1837 7.17527 16.2495 7.33424 16.2495 7.5V8.93219C16.2495 9.09795 16.1837 9.25692 16.0665 9.37413C15.9492 9.49134 15.7903 9.55719 15.6245 9.55719Z" fill="#2563EB"/>
<path d="M16.8742 12.3522C16.7206 12.3524 16.5723 12.2957 16.4579 12.1931C15.9994 11.7826 15.6325 11.28 15.3812 10.7181C15.1299 10.1562 14.9998 9.54769 14.9995 8.93219C14.9995 8.76643 15.0654 8.60746 15.1826 8.49025C15.2998 8.37304 15.4588 8.30719 15.6245 8.30719C15.7903 8.30719 15.9492 8.37304 16.0665 8.49025C16.1837 8.60746 16.2495 8.76643 16.2495 8.93219C16.2495 9.82031 16.6292 10.6694 17.2911 11.2616C17.3855 11.3459 17.4521 11.457 17.482 11.58C17.5119 11.703 17.5037 11.8323 17.4585 11.9505C17.4133 12.0688 17.3332 12.1706 17.2288 12.2423C17.1245 12.314 17.0008 12.3523 16.8742 12.3522ZM4.37451 9.55719C4.20875 9.55719 4.04978 9.49134 3.93257 9.37413C3.81536 9.25692 3.74951 9.09795 3.74951 8.93219V7.5C3.74951 7.33424 3.81536 7.17527 3.93257 7.05806C4.04978 6.94085 4.20875 6.875 4.37451 6.875C4.54027 6.875 4.69924 6.94085 4.81645 7.05806C4.93366 7.17527 4.99951 7.33424 4.99951 7.5V8.93219C4.99951 9.09795 4.93366 9.25692 4.81645 9.37413C4.69924 9.49134 4.54027 9.55719 4.37451 9.55719Z" fill="#2563EB"/>
<path d="M3.12482 12.352C2.9982 12.352 2.87456 12.3136 2.77024 12.2419C2.66593 12.1701 2.58588 12.0683 2.54069 11.95C2.49549 11.8318 2.48728 11.7026 2.51715 11.5795C2.54702 11.4565 2.61355 11.3454 2.70795 11.261C3.03548 10.9677 3.29751 10.6087 3.47698 10.2073C3.65644 9.80597 3.74931 9.3713 3.74951 8.93164C3.74951 8.76588 3.81536 8.60691 3.93257 8.4897C4.04978 8.37249 4.20875 8.30664 4.37451 8.30664C4.54027 8.30664 4.69924 8.37249 4.81645 8.4897C4.93366 8.60691 4.99951 8.76588 4.99951 8.93164C4.99951 10.1751 4.46795 11.3635 3.54107 12.1926C3.42201 12.2995 3.27326 12.352 3.12482 12.352ZM9.99951 18.7495C7.9667 18.7495 6.24951 17.0323 6.24951 14.9995C6.24951 14.8337 6.31536 14.6747 6.43257 14.5575C6.54978 14.4403 6.70875 14.3745 6.87451 14.3745C7.04027 14.3745 7.19924 14.4403 7.31645 14.5575C7.43366 14.6747 7.49951 14.8337 7.49951 14.9995C7.49951 16.3545 8.6442 17.4995 9.99951 17.4995C11.3548 17.4995 12.4995 16.3545 12.4995 14.9995C12.4995 14.8337 12.5654 14.6747 12.6826 14.5575C12.7998 14.4403 12.9587 14.3745 13.1245 14.3745C13.2903 14.3745 13.4492 14.4403 13.5665 14.5575C13.6837 14.6747 13.7495 14.8337 13.7495 14.9995C13.7495 17.0323 12.0323 18.7495 9.99951 18.7495Z" fill="#2563EB"/>
<path d="M4.37434 15.6249C3.34497 15.6249 2.43778 14.9908 2.06309 14.0096C1.68747 13.0265 1.94059 11.9477 2.70778 11.2618C2.76893 11.2068 2.84032 11.1644 2.91786 11.1371C2.99541 11.1098 3.07758 11.098 3.15968 11.1025C3.24178 11.107 3.32218 11.1276 3.39629 11.1632C3.4704 11.1988 3.53676 11.2487 3.59156 11.31C3.64636 11.3713 3.68853 11.4428 3.71564 11.5204C3.74276 11.598 3.7543 11.6802 3.7496 11.7623C3.74489 11.8444 3.72403 11.9248 3.68822 11.9988C3.65241 12.0728 3.60235 12.139 3.54091 12.1936C3.08278 12.6033 3.08028 13.1702 3.23059 13.564C3.38028 13.9561 3.75966 14.3755 4.37434 14.3755C4.45638 14.3755 4.53761 14.3917 4.6134 14.4231C4.68919 14.4545 4.75806 14.5005 4.81606 14.5585C4.87407 14.6165 4.92009 14.6854 4.95148 14.7611C4.98287 14.8369 4.99903 14.9182 4.99903 15.0002C4.99903 15.0822 4.98287 15.1635 4.95148 15.2393C4.92009 15.3151 4.87407 15.3839 4.81606 15.4419C4.75806 15.4999 4.68919 15.5459 4.6134 15.5773C4.53761 15.6087 4.45638 15.6249 4.37434 15.6249Z" fill="#2563EB"/>
<path d="M15.6245 15.625H4.37451C4.20875 15.625 4.04978 15.5592 3.93257 15.4419C3.81536 15.3247 3.74951 15.1658 3.74951 15C3.74951 14.8342 3.81536 14.6753 3.93257 14.5581C4.04978 14.4408 4.20875 14.375 4.37451 14.375H15.6245C15.7903 14.375 15.9492 14.4408 16.0665 14.5581C16.1837 14.6753 16.2495 14.8342 16.2495 15C16.2495 15.1658 16.1837 15.3247 16.0665 15.4419C15.9492 15.5592 15.7903 15.625 15.6245 15.625Z" fill="#2563EB"/>
</svg>
