<svg width="14" height="14" viewBox="0 0 14 14" fill="none" xmlns="http://www.w3.org/2000/svg">
<g clip-path="url(#clip0_17102_4895)">
<path d="M6.99885 13.8878C3.24685 13.8878 0.194458 10.7979 0.194458 6.99999C0.194458 3.2021 3.24685 0.112183 6.99885 0.112183C10.752 0.112183 13.8056 3.2021 13.8056 6.99999C13.8056 10.7979 10.752 13.8878 6.99885 13.8878ZM6.99885 1.0844C3.78293 1.0844 1.16668 3.73818 1.16668 6.99999C1.16668 10.2618 3.78293 12.9156 6.99885 12.9156C10.2159 12.9156 12.8333 10.2618 12.8333 6.99999C12.8333 3.73818 10.2159 1.0844 6.99885 1.0844Z" fill="url(#paint0_linear_17102_4895)"/>
<path d="M2.60826 11.8778C2.51206 11.878 2.41798 11.8496 2.33794 11.7962C2.25791 11.7428 2.19552 11.6669 2.1587 11.578C2.12187 11.4892 2.11227 11.3913 2.1311 11.297C2.14994 11.2027 2.19636 11.116 2.26449 11.0481L11.0479 2.26468C11.093 2.21951 11.1466 2.18368 11.2056 2.15923C11.2646 2.13478 11.3278 2.12219 11.3916 2.12219C11.4554 2.12219 11.5187 2.13478 11.5776 2.15923C11.6366 2.18368 11.6902 2.21951 11.7353 2.26468C11.7805 2.30979 11.8163 2.36337 11.8407 2.42234C11.8652 2.48131 11.8778 2.54452 11.8778 2.60836C11.8778 2.6722 11.8652 2.73541 11.8407 2.79438C11.8163 2.85336 11.7805 2.90693 11.7353 2.95204L2.95204 11.7355C2.90694 11.7807 2.85335 11.8165 2.79435 11.841C2.73536 11.8654 2.67212 11.8779 2.60826 11.8778Z" fill="url(#paint1_linear_17102_4895)"/>
</g>
<defs>
<linearGradient id="paint0_linear_17102_4895" x1="10.0852" y1="0.663207" x2="6.92904" y2="13.8708" gradientUnits="userSpaceOnUse">
<stop stop-color="#FF6D7A"/>
<stop offset="1" stop-color="#FF4151"/>
</linearGradient>
<linearGradient id="paint1_linear_17102_4895" x1="9.21112" y1="2.51242" x2="6.99993" y2="11.8779" gradientUnits="userSpaceOnUse">
<stop stop-color="#FF6D7A"/>
<stop offset="1" stop-color="#FF4151"/>
</linearGradient>
<clipPath id="clip0_17102_4895">
<rect width="14" height="14" fill="white"/>
</clipPath>
</defs>
</svg>
