<svg width="14" height="14" viewBox="0 0 14 14" fill="none" xmlns="http://www.w3.org/2000/svg">
<path fill-rule="evenodd" clip-rule="evenodd" d="M2.62281 11.8282C2.83544 9.611 4.70575 7.875 6.97813 7.875C7.12381 7.875 7.26775 7.882 7.40994 7.896C7.46778 7.90293 7.52641 7.89825 7.58242 7.88222C7.63842 7.86619 7.69065 7.83914 7.73606 7.80265C7.78147 7.76617 7.81913 7.72098 7.84684 7.66974C7.87456 7.61851 7.89176 7.56225 7.89744 7.50428C7.90312 7.4463 7.89716 7.38778 7.87993 7.33214C7.86269 7.2765 7.83451 7.22486 7.79705 7.18025C7.75959 7.13565 7.7136 7.09897 7.66177 7.07237C7.60995 7.04578 7.55333 7.0298 7.49525 7.02538C7.32339 7.00853 7.15081 7.00006 6.97813 7C4.25075 7 2.00681 9.08381 1.75219 11.7447C1.7449 11.8028 1.74933 11.8617 1.76523 11.918C1.78113 11.9744 1.80817 12.0269 1.84475 12.0726C1.88132 12.1183 1.9267 12.1562 1.97819 12.184C2.02967 12.2119 2.08622 12.2291 2.14448 12.2347C2.20274 12.2403 2.26153 12.2341 2.31737 12.2166C2.37322 12.1991 2.42497 12.1705 2.46957 12.1326C2.51417 12.0947 2.55072 12.0482 2.57704 11.996C2.60336 11.9437 2.61893 11.8867 2.62281 11.8282ZM6.95625 1.75C5.50725 1.75 4.33125 2.92644 4.33125 4.375C4.33125 5.82356 5.50725 7 6.95625 7C8.40481 7 9.58125 5.82356 9.58125 4.375C9.58125 2.92644 8.40481 1.75 6.95625 1.75ZM6.95625 2.625C7.92225 2.625 8.70625 3.409 8.70625 4.375C8.70625 5.341 7.92225 6.125 6.95625 6.125C5.99025 6.125 5.20625 5.341 5.20625 4.375C5.20625 3.409 5.99025 2.625 6.95625 2.625ZM9.40144 8.30769C8.295 8.30769 7.32419 9.20719 6.88669 9.71163L6.88406 9.71469C6.75031 9.87143 6.6769 10.0708 6.67706 10.2768C6.67723 10.4829 6.75094 10.6821 6.88494 10.8386L6.88669 10.8404C7.32375 11.3453 8.295 12.2452 9.40144 12.2452C10.5079 12.2452 11.4787 11.3457 11.9162 10.8413L11.9188 10.8382C12.0526 10.6814 12.126 10.4821 12.1258 10.2761C12.1257 10.07 12.0519 9.87078 11.9179 9.71425L11.9162 9.7125C11.4791 9.20763 10.5079 8.30769 9.40144 8.30769ZM11.2477 10.2769C10.9169 10.6566 10.2235 11.3702 9.40144 11.3702C8.57938 11.3702 7.8855 10.6562 7.55519 10.276C7.88594 9.89625 8.57938 9.18269 9.40144 9.18269C10.2235 9.18269 10.9174 9.89669 11.2477 10.2769Z" fill="#5D5D5D"/>
<path d="M9.40149 10.8234C9.70352 10.8234 9.94836 10.5785 9.94836 10.2765C9.94836 9.97446 9.70352 9.72961 9.40149 9.72961C9.09946 9.72961 8.85461 9.97446 8.85461 10.2765C8.85461 10.5785 9.09946 10.8234 9.40149 10.8234Z" fill="#5D5D5D"/>
</svg>
