<svg width="24" height="24" viewBox="0 0 24 24" fill="none" xmlns="http://www.w3.org/2000/svg">
<rect width="24" height="24" rx="12" fill="#BFDBFE"/>
<path d="M6 12.1332C6 11.8912 6.05867 11.6692 6.17534 11.4665C6.30002 11.2638 6.46403 11.1038 6.66671 10.9865C6.87739 10.8625 7.10007 10.7998 7.33341 10.7998C7.57543 10.7998 7.79744 10.8625 8.00012 10.9865C8.2028 11.1038 8.36281 11.2638 8.48015 11.4665C8.60187 11.6676 8.66623 11.8982 8.66623 12.1332C8.66623 12.3683 8.60187 12.5988 8.48015 12.7999C8.36281 13.0026 8.2028 13.1666 8.00012 13.2913C7.79752 13.4082 7.56732 13.4687 7.33341 13.4666C7.10007 13.4666 6.87739 13.408 6.66671 13.2913C6.46623 13.1688 6.2978 13.0004 6.17534 12.7999C6.0603 12.5966 5.99989 12.3669 6 12.1332ZM10.6669 12.1332C10.6669 11.8912 10.7256 11.6692 10.8423 11.4665C10.967 11.2638 11.131 11.1038 11.3336 10.9865C11.5443 10.8625 11.767 10.7998 12.0004 10.7998C12.2424 10.7998 12.4644 10.8625 12.6671 10.9865C12.8697 11.1038 13.0297 11.2638 13.1471 11.4665C13.2687 11.6676 13.3331 11.8982 13.3331 12.1332C13.3331 12.3683 13.2687 12.5988 13.1471 12.7999C13.0297 13.0026 12.8697 13.1666 12.6671 13.2913C12.4645 13.4082 12.2343 13.4687 12.0004 13.4666C11.767 13.4666 11.5443 13.408 11.3336 13.2913C11.1332 13.1689 10.9647 13.0004 10.8423 12.7999C10.7272 12.5966 10.6668 12.3669 10.6669 12.1332ZM15.3339 12.1332C15.3339 11.8912 15.3926 11.6692 15.5092 11.4665C15.6339 11.2638 15.7979 11.1038 16.0006 10.9865C16.2113 10.8625 16.434 10.7998 16.6673 10.7998C16.9093 10.7998 17.1313 10.8625 17.334 10.9865C17.5367 11.1038 17.6967 11.2638 17.814 11.4665C17.9357 11.6676 18 11.8982 18 12.1332C18 12.3683 17.9357 12.5988 17.814 12.7999C17.6967 13.0026 17.5367 13.1666 17.334 13.2913C17.1314 13.4082 16.9012 13.4687 16.6673 13.4666C16.434 13.4666 16.2113 13.408 16.0006 13.2913C15.8001 13.1689 15.6317 13.0004 15.5092 12.7999C15.3942 12.5966 15.3337 12.3669 15.3339 12.1332Z" fill="#2563EB"/>
</svg>
