<svg width="16" height="14" viewBox="0 0 16 14" fill="none" xmlns="http://www.w3.org/2000/svg">
<path d="M15.5 13.333C15.4102 13.3329 15.3221 13.3087 15.2449 13.2628C15.1677 13.217 15.1043 13.1511 15.0613 13.0723L15.0473 13.047C14.3117 11.7197 13.2342 10.6135 11.9267 9.84323C10.6193 9.07292 9.12949 8.66656 7.61199 8.66631H6.66666V11.4996C6.66659 11.5978 6.63761 11.6938 6.58333 11.7757C6.52905 11.8575 6.45187 11.9215 6.36143 11.9598C6.27099 11.998 6.17129 12.0088 6.07477 11.9908C5.97824 11.9727 5.88917 11.9267 5.81866 11.8583L0.151993 6.35831C0.103762 6.31185 0.0653973 6.25615 0.0391924 6.19452C0.0129876 6.13289 -0.000518799 6.06661 -0.000518799 5.99965C-0.000518799 5.93268 0.0129876 5.8664 0.0391924 5.80477C0.0653973 5.74315 0.103762 5.68744 0.151993 5.64098L5.81866 0.140979C5.88917 0.0726344 5.97824 0.0265643 6.07477 0.0085171C6.17129 -0.00953014 6.27099 0.00124458 6.36143 0.0394967C6.45187 0.0777489 6.52905 0.141785 6.58333 0.223616C6.63761 0.305447 6.66659 0.401449 6.66666 0.499646V3.33431C11.8287 3.42365 16 7.65031 16 12.833C16 12.9656 15.9473 13.0928 15.8535 13.1865C15.7598 13.2803 15.6326 13.333 15.5 13.333ZM6.16666 7.66631H7.61199C10.396 7.66631 13.0047 8.88565 14.788 10.9403C13.9253 7.16098 10.5367 4.33298 6.49999 4.33298H6.16666C6.03405 4.33298 5.90688 4.2803 5.81311 4.18653C5.71934 4.09276 5.66666 3.96559 5.66666 3.83298V1.68165L1.21799 5.99965L5.66666 10.3176V8.16631C5.66666 8.0337 5.71934 7.90653 5.81311 7.81276C5.90688 7.71899 6.03405 7.66631 6.16666 7.66631Z" fill="black"/>
</svg>
