<svg width="17" height="17" viewBox="0 0 17 17" fill="none" xmlns="http://www.w3.org/2000/svg">
<path fill-rule="evenodd" clip-rule="evenodd" d="M11.3917 1.28333C11.2817 1.25417 11.1567 1.25 10.6875 1.25H3.29167C2.815 1.25 2.49417 1.25 2.2475 1.27083C2.00833 1.29 1.89417 1.325 1.81833 1.36333C1.62232 1.4634 1.46304 1.62297 1.36333 1.81917C1.325 1.89417 1.29 2.00833 1.27083 2.24833C1.25083 2.49417 1.25 2.815 1.25 3.29167V12.9583C1.25 13.435 1.25 13.7558 1.27083 14.0017C1.29 14.2417 1.325 14.3558 1.36333 14.4317C1.46333 14.6275 1.6225 14.7867 1.81833 14.8867C1.89333 14.925 2.00833 14.96 2.2475 14.9792C2.49417 14.9992 2.81417 15 3.29167 15H3.33333V12.4333C3.33333 11.9875 3.33333 11.6167 3.35833 11.3125C3.38333 10.9958 3.44 10.6992 3.58333 10.4175C3.80277 9.98677 4.15278 9.63646 4.58333 9.41667C4.865 9.27333 5.16167 9.21667 5.47833 9.19167C5.7825 9.16667 6.15333 9.16667 6.59917 9.16667H9.64917C10.095 9.16667 10.4658 9.16667 10.77 9.19167C11.0867 9.21667 11.3833 9.27333 11.6642 9.41667C12.095 9.63583 12.4467 9.98667 12.6658 10.4175C12.8092 10.6992 12.8658 10.9967 12.8908 11.3125C12.9158 11.6158 12.9158 11.9867 12.9158 12.4308V15H12.9575C13.435 15 13.755 15 14.0008 14.9792C14.24 14.96 14.355 14.925 14.43 14.8867C14.6267 14.7867 14.7858 14.6267 14.8858 14.4317C14.9242 14.3558 14.9592 14.2417 14.9783 14.0025C14.9983 13.7558 14.9992 13.4358 14.9992 12.9583V5.815C14.9992 5.40917 14.9958 5.30083 14.9742 5.20417C14.9522 5.10465 14.9157 5.00891 14.8658 4.92C14.8167 4.83417 14.7467 4.75083 14.475 4.44917L12.2042 1.92583C11.8908 1.5775 11.8025 1.48667 11.7083 1.42417C11.6114 1.3596 11.5044 1.31255 11.3917 1.28333ZM12.295 16.25H12.9833C13.4292 16.25 13.8 16.25 14.1042 16.225C14.4208 16.2 14.7175 16.1433 14.9983 16C15.4296 15.7802 15.7802 15.4296 16 14.9983C16.1433 14.7175 16.2 14.42 16.225 14.1033C16.25 13.8008 16.25 13.43 16.25 12.9867V5.76167C16.25 5.43667 16.25 5.18 16.195 4.93167C16.146 4.71271 16.0652 4.50213 15.955 4.30667C15.83 4.085 15.6592 3.895 15.4425 3.65417L15.405 3.6125L13.1342 1.09L13.0925 1.04333C12.8417 0.764167 12.6442 0.545 12.4008 0.383334C12.1872 0.241065 11.9511 0.13571 11.7025 0.0716671C11.4208 -0.000832938 11.1267 4.20862e-07 10.7525 4.20862e-07H3.26667C2.82167 4.20862e-07 2.45 3.97364e-07 2.14583 0.0250004C1.82917 0.0500004 1.5325 0.106667 1.25083 0.25C0.819848 0.469867 0.469508 0.820499 0.25 1.25167C0.106667 1.5325 0.05 1.82917 0.025 2.14583C-2.32831e-08 2.45 0 2.82083 0 3.26667V12.9833C0 13.4292 -2.32831e-08 13.8 0.025 14.1042C0.05 14.4208 0.106667 14.7175 0.25 14.9983C0.469291 15.4294 0.819325 15.78 1.25 16C1.53167 16.1433 1.82833 16.2 2.145 16.225C2.44917 16.25 2.82 16.25 3.26583 16.25H12.2917H12.295ZM11.6667 15V12.4583C11.6667 11.9808 11.6667 11.6608 11.6458 11.4142C11.6267 11.175 11.5917 11.0608 11.5533 10.9858C11.4534 10.7895 11.2938 10.63 11.0975 10.53C11.0225 10.4917 10.9083 10.4567 10.6692 10.4375C10.4225 10.4175 10.1025 10.4167 9.625 10.4167H6.625C6.14833 10.4167 5.8275 10.4167 5.58083 10.4375C5.34167 10.4567 5.2275 10.4917 5.15167 10.53C4.95578 10.6298 4.79651 10.7891 4.69667 10.985C4.65833 11.0608 4.62333 11.175 4.60417 11.4142C4.58417 11.6608 4.58333 11.9808 4.58333 12.4583V15H11.6667ZM5 3.95833C5 3.79257 5.06585 3.6336 5.18306 3.51639C5.30027 3.39918 5.45924 3.33333 5.625 3.33333H10.625C10.7908 3.33333 10.9497 3.39918 11.0669 3.51639C11.1842 3.6336 11.25 3.79257 11.25 3.95833C11.25 4.12409 11.1842 4.28307 11.0669 4.40028C10.9497 4.51749 10.7908 4.58333 10.625 4.58333H5.625C5.45924 4.58333 5.30027 4.51749 5.18306 4.40028C5.06585 4.28307 5 4.12409 5 3.95833Z" fill="white"/>
</svg>
