<svg width="34" height="44" viewBox="0 0 34 44" fill="none" xmlns="http://www.w3.org/2000/svg">
<path d="M23.9525 0H1.1495C0.514643 0 0 0.514643 0 1.51329V43.2143C0 43.4854 0.514643 44 1.1495 44H32.6362C33.2711 44 33.7857 43.4854 33.7857 43.2143V10.197C33.7857 9.65014 33.7126 9.47414 33.5838 9.3445L24.4412 0.201929C24.3113 0.0728153 24.1357 0.00024027 23.9525 0Z" fill="#E9E9E0"/>
<path d="M24.3572 0.118652V9.42858H33.6671L24.3572 0.118652Z" fill="#D9D7CA"/>
<path d="M10.2253 26.1832C9.95186 26.1832 9.68943 26.0944 9.4655 25.927C8.64757 25.3134 8.53757 24.6306 8.58943 24.1654C8.73243 22.8863 10.3141 21.5474 13.2919 20.1834C14.4736 17.5937 15.598 14.4029 16.2682 11.737C15.4841 10.0304 14.7219 7.81631 15.2774 6.51752C15.4723 6.06259 15.7151 5.71373 16.1684 5.56288C16.429 5.48995 16.6966 5.44466 16.9667 5.42773C17.3627 5.42773 17.7108 5.93766 17.9575 6.25195C18.1893 6.54738 18.7149 7.17359 17.6644 11.5964C18.7236 13.7838 20.2243 16.0121 21.6621 17.5379C22.6922 17.3517 23.5785 17.2567 24.3006 17.2567C25.531 17.2567 26.2766 17.5435 26.5807 18.1343C26.8321 18.623 26.7292 19.1942 26.2743 19.8315C25.8366 20.4435 25.2332 20.7672 24.53 20.7672C23.5746 20.7672 22.462 20.1638 21.2214 18.9719C18.9923 19.4378 16.3892 20.2691 14.2851 21.1892C13.6282 22.583 12.9989 23.7058 12.4127 24.5292C11.6074 25.6567 10.9128 26.1832 10.2253 26.1832ZM12.3169 22.1556C10.6378 23.0992 9.95343 23.8747 9.90393 24.3116C9.89607 24.3839 9.87486 24.574 10.2426 24.8553C10.3596 24.8184 11.0432 24.5065 12.3169 22.1556ZM23.0316 18.6654C23.672 19.1581 23.8284 19.4072 24.2471 19.4072C24.431 19.4072 24.9551 19.3993 25.1979 19.0607C25.3149 18.8965 25.3605 18.7912 25.3786 18.7346C25.2819 18.6835 25.1539 18.5798 24.4554 18.5798C24.0586 18.5806 23.5596 18.5979 23.0316 18.6654ZM17.1624 13.4939C16.5741 15.5128 15.8727 17.497 15.0614 19.437C16.7247 18.7926 18.4299 18.2624 20.1654 17.8499C19.1046 16.6179 18.0447 15.0794 17.1624 13.4939ZM16.6854 6.84516C16.6084 6.87109 15.6404 8.22566 16.7609 9.37202C17.5065 7.71023 16.7192 6.83416 16.6854 6.84516ZM32.6362 44H1.1495C0.844634 44 0.552254 43.8789 0.336681 43.6633C0.121108 43.4478 0 43.1554 0 42.8505V30.6429H33.7857V42.8505C33.7857 43.4854 33.2711 44 32.6362 44Z" fill="#CC4B4C"/>
<path d="M8.55254 41.6429H7.26318V33.7261H9.54018C9.87647 33.7261 10.2096 33.7795 10.5388 33.8871C10.868 33.9948 11.1635 34.1559 11.4251 34.3704C11.6868 34.5849 11.8981 34.8449 12.0592 35.149C12.2203 35.4531 12.3012 35.7949 12.3012 36.1751C12.3012 36.5766 12.2328 36.9396 12.0969 37.2657C11.9702 37.5785 11.7756 37.8592 11.5273 38.0876C11.2837 38.3091 10.9898 38.4812 10.6465 38.603C10.3031 38.7248 9.92283 38.7853 9.50797 38.7853H8.55176L8.55254 41.6429ZM8.55254 34.7035V37.8401H9.73425C9.8914 37.8401 10.047 37.8134 10.2018 37.7591C10.3558 37.7057 10.4972 37.6177 10.626 37.4959C10.7549 37.3741 10.8586 37.2044 10.9372 36.986C11.0158 36.7676 11.055 36.4973 11.055 36.1751C11.055 36.0463 11.037 35.897 11.0016 35.7296C10.9627 35.555 10.8878 35.3905 10.7816 35.2464C10.6584 35.0826 10.4982 34.9501 10.3141 34.8599C10.1138 34.7561 9.84818 34.7043 9.51897 34.7043L8.55254 34.7035ZM20.2078 37.4645C20.2078 38.1159 20.1379 38.6729 19.998 39.1349C19.8582 39.5969 19.6814 39.9835 19.4661 40.2954C19.2508 40.6074 19.0096 40.8525 18.7409 41.0316C18.4722 41.2108 18.2129 41.3444 17.9623 41.4347C17.7401 41.5172 17.5096 41.5749 17.2748 41.6068C17.0673 41.6304 16.9133 41.6429 16.8128 41.6429H13.816V33.7261H16.2007C16.867 33.7261 17.4523 33.8321 17.9568 34.0427C18.4612 34.2533 18.8808 34.5354 19.2139 34.8858C19.547 35.2362 19.7953 35.6361 19.9603 36.0832C20.1253 36.5311 20.2078 36.9915 20.2078 37.4645ZM16.3838 40.6977C17.2575 40.6977 17.8876 40.4188 18.2742 39.8601C18.6608 39.3015 18.854 38.4922 18.854 37.4323C18.854 37.1031 18.8148 36.777 18.7362 36.4549C18.6568 36.1327 18.5052 35.8412 18.2797 35.5796C18.0542 35.3179 17.7478 35.1066 17.3612 34.9455C16.9746 34.7844 16.4733 34.7035 15.8573 34.7035H15.1054V40.6977H16.3838ZM23.3876 34.7035V37.1958H26.6963V38.0766H23.3876V41.6429H22.077V33.7261H27.0286V34.7035H23.3876Z" fill="white"/>
</svg>
