<svg width="15" height="15" viewBox="0 0 15 15" fill="none" xmlns="http://www.w3.org/2000/svg">
<path d="M14.4375 1.975L13.025 0.5625C12.275 -0.1875 11.0562 -0.1875 10.3062 0.5625L7.9375 2.9375L0.94375 9.925C0.33125 10.5375 0 11.3438 0 12.2063V14.375C0 14.7188 0.28125 15 0.625 15H2.79375C3.65625 15 4.4625 14.6625 5.075 14.0562L12.0687 7.06875L14.4375 4.69375C14.8 4.33125 15 3.85 15 3.3375C15 2.825 14.8 2.34375 14.4375 1.98125V1.975ZM4.1875 13.1687C3.8125 13.5437 3.31875 13.75 2.79375 13.75H1.25V12.2063C1.25 11.6813 1.45625 11.1812 1.83125 10.8125L8.38125 4.26875L10.7438 6.63125L4.19375 13.1812L4.1875 13.1687ZM13.5563 3.80625L11.6313 5.7375L9.26875 3.375L11.1938 1.44375C11.4563 1.18125 11.8813 1.18125 12.1438 1.44375L13.5563 2.85625C13.6813 2.98125 13.75 3.15 13.75 3.33125C13.75 3.5125 13.6813 3.675 13.5563 3.80625ZM13.75 13.75H7.5C7.15625 13.75 6.875 14.0312 6.875 14.375C6.875 14.7188 7.15625 15 7.5 15H13.75C14.0938 15 14.375 14.7188 14.375 14.375C14.375 14.0312 14.0938 13.75 13.75 13.75Z" fill="#2563EB"/>
</svg>
