<svg width="15" height="15" viewBox="0 0 15 15" fill="none" xmlns="http://www.w3.org/2000/svg">
<path d="M7.29112 0C7.12536 0 6.96639 0.0658479 6.84918 0.183058C6.73197 0.300268 6.66612 0.45924 6.66612 0.625C6.66612 0.79076 6.73197 0.949732 6.84918 1.06694C6.96639 1.18415 7.12536 1.25 7.29112 1.25C8.89347 1.25 10.4302 1.88653 11.5632 3.01956C12.6963 4.1526 13.3328 5.68932 13.3328 7.29167C13.3328 8.89402 12.6963 10.4307 11.5632 11.5638C10.4302 12.6968 8.89347 13.3333 7.29112 13.3333C7.12536 13.3333 6.96639 13.3992 6.84918 13.5164C6.73197 13.6336 6.66612 13.7926 6.66612 13.9583C6.66612 14.1241 6.73197 14.2831 6.84918 14.4003C6.96639 14.5175 7.12536 14.5833 7.29112 14.5833C9.22499 14.5833 11.0797 13.8151 12.4471 12.4477C13.8146 11.0802 14.5828 9.22554 14.5828 7.29167C14.5828 5.3578 13.8146 3.50313 12.4471 2.13568C11.0797 0.768227 9.22499 0 7.29112 0Z" fill="url(#paint0_linear_17658_4255)"/>
<path d="M3.56612 5.23333C3.67652 5.11485 3.73662 4.95814 3.73376 4.79623C3.73091 4.63431 3.66531 4.47982 3.5508 4.36531C3.43629 4.2508 3.2818 4.18521 3.11989 4.18235C2.95797 4.17949 2.80126 4.23959 2.68278 4.34999L0.182784 6.84999C0.0657415 6.96718 9.53674e-07 7.12604 9.53674e-07 7.29166C9.53674e-07 7.45729 0.0657415 7.61614 0.182784 7.73333L2.68278 10.2333C2.74 10.2947 2.809 10.344 2.88567 10.3781C2.96233 10.4123 3.0451 10.4307 3.12902 10.4322C3.21293 10.4336 3.29629 10.4182 3.37411 10.3868C3.45194 10.3553 3.52263 10.3085 3.58198 10.2492C3.64133 10.1898 3.68812 10.1191 3.71955 10.0413C3.75099 9.9635 3.76642 9.88015 3.76494 9.79623C3.76346 9.71231 3.7451 9.62955 3.71094 9.55288C3.67678 9.47621 3.62752 9.40721 3.56612 9.35L2.13278 7.91666H8.95778C9.12354 7.91666 9.28252 7.85081 9.39973 7.7336C9.51694 7.61639 9.58278 7.45742 9.58278 7.29166C9.58278 7.1259 9.51694 6.96693 9.39973 6.84972C9.28252 6.73251 9.12354 6.66666 8.95778 6.66666H2.13278L3.56612 5.23333Z" fill="url(#paint1_linear_17658_4255)"/>
<defs>
<linearGradient id="paint0_linear_17658_4255" x1="14.5828" y1="7.29167" x2="6.66612" y2="7.29167" gradientUnits="userSpaceOnUse">
<stop stop-color="#1E293B"/>
<stop offset="1" stop-color="#2563EB"/>
</linearGradient>
<linearGradient id="paint1_linear_17658_4255" x1="9.58278" y1="7.30725" x2="9.53674e-07" y2="7.30725" gradientUnits="userSpaceOnUse">
<stop stop-color="#1E293B"/>
<stop offset="1" stop-color="#2563EB"/>
</linearGradient>
</defs>
</svg>
