<svg width="18" height="16" viewBox="0 0 18 16" fill="none" xmlns="http://www.w3.org/2000/svg">
<path fill-rule="evenodd" clip-rule="evenodd" d="M7.764 0H9.436C10.9056 0 12.0568 5.96046e-08 12.9712 0.0992001C13.9032 0.2 14.6592 0.4096 15.304 0.8784C15.6945 1.16211 16.0379 1.50551 16.3216 1.896C16.7904 2.5416 17 3.2968 17.1008 4.2296C17.2 5.1432 17.2 6.2944 17.2 7.764V7.836C17.2 9.3056 17.2 10.4576 17.1008 11.3712C17 12.3032 16.7904 13.0592 16.3216 13.704C16.0379 14.0945 15.6945 14.4379 15.304 14.7216C14.6584 15.1904 13.904 15.4 12.9712 15.5008C12.0568 15.6 10.9056 15.6 9.436 15.6H7.764C6.2944 15.6 5.1432 15.6 4.2288 15.5008C3.2968 15.4 2.5408 15.1904 1.896 14.7216C1.50551 14.4379 1.16211 14.0945 0.8784 13.704C0.4096 13.0592 0.2 12.304 0.0992 11.3712C-3.57628e-08 10.4576 0 9.3056 0 7.836V7.764C0 6.2944 -3.57628e-08 5.1432 0.0992 4.2296C0.2 3.2968 0.4096 2.5416 0.8784 1.896C1.16211 1.50551 1.50551 1.16211 1.896 0.8784C2.5416 0.4096 3.296 0.2 4.2288 0.0992001C5.1432 5.96046e-08 6.2944 0 7.764 0ZM4.3584 1.292C3.528 1.3824 3.008 1.5544 2.6016 1.8496C2.31304 2.05927 2.05927 2.31304 1.8496 2.6016C1.5536 3.008 1.3816 3.528 1.292 4.3584C1.2008 5.2 1.2 6.2864 1.2 7.8C1.2 9.3136 1.2008 10.4 1.292 11.2416C1.3816 12.072 1.5544 12.592 1.8496 12.9984C2.0592 13.2872 2.3136 13.5408 2.6016 13.7504C3.008 14.0464 3.528 14.2184 4.3584 14.308C5.2 14.3992 6.2864 14.4 7.8 14.4H9.4C10.9136 14.4 12 14.4 12.8416 14.308C13.672 14.2184 14.192 14.0464 14.5984 13.7504C14.8864 13.5408 15.1408 13.2872 15.3504 12.9984C15.6464 12.592 15.8184 12.072 15.908 11.2416C15.9992 10.4 16 9.3136 16 7.8C16 6.2864 15.9992 5.2 15.908 4.3584C15.8176 3.528 15.6456 3.008 15.3504 2.6016C15.1407 2.31304 14.887 2.05927 14.5984 1.8496C14.192 1.5536 13.672 1.3824 12.8416 1.292C12 1.2008 10.9136 1.2 9.4 1.2H7.8C6.2864 1.2 5.2 1.2008 4.3584 1.292Z" fill="#2563EB"/>
<path fill-rule="evenodd" clip-rule="evenodd" d="M5.9999 14.6V1H7.1999V14.6H5.9999ZM2.3999 3.8C2.3999 3.64087 2.46312 3.48826 2.57564 3.37574C2.68816 3.26321 2.84077 3.2 2.9999 3.2V4.4C2.84077 4.4 2.68816 4.33679 2.57564 4.22426C2.46312 4.11174 2.3999 3.95913 2.3999 3.8ZM2.9999 4.4H4.1999C4.35903 4.4 4.51164 4.33679 4.62417 4.22426C4.73669 4.11174 4.7999 3.95913 4.7999 3.8C4.7999 3.64087 4.73669 3.48826 4.62417 3.37574C4.51164 3.26321 4.35903 3.2 4.1999 3.2H2.9999V4.4ZM2.3999 7C2.3999 6.84087 2.46312 6.68826 2.57564 6.57574C2.68816 6.46321 2.84077 6.4 2.9999 6.4H4.1999C4.35903 6.4 4.51164 6.46321 4.62417 6.57574C4.73669 6.68826 4.7999 6.84087 4.7999 7C4.7999 7.15913 4.73669 7.31174 4.62417 7.42426C4.51164 7.53679 4.35903 7.6 4.1999 7.6H2.9999C2.84077 7.6 2.68816 7.53679 2.57564 7.42426C2.46312 7.31174 2.3999 7.15913 2.3999 7ZM13.0543 5.808C13.1058 5.86767 13.145 5.93689 13.1698 6.01172C13.1945 6.08656 13.2042 6.16553 13.1984 6.24413C13.1927 6.32273 13.1714 6.39942 13.136 6.46981C13.1005 6.54021 13.0516 6.60293 12.9919 6.6544L12.0103 7.5C11.8503 7.6384 11.7447 7.7296 11.6727 7.8C11.7447 7.8704 11.8503 7.9624 12.0103 8.1L12.9919 8.9456C13.0516 8.99708 13.1005 9.05981 13.136 9.1302C13.1714 9.2006 13.1926 9.27728 13.1984 9.35588C13.2042 9.43447 13.1944 9.51344 13.1697 9.58827C13.145 9.6631 13.1058 9.73233 13.0543 9.792C13.0028 9.85167 12.9401 9.90062 12.8697 9.93605C12.7993 9.97148 12.7226 9.9927 12.644 9.9985C12.5654 10.0043 12.4865 9.99455 12.4116 9.96982C12.3368 9.9451 12.2676 9.90588 12.2079 9.8544L11.2271 9.0088L11.2015 8.9872C11.0175 8.828 10.8359 8.672 10.7055 8.5248C10.5615 8.3616 10.3999 8.124 10.3999 7.8C10.3999 7.476 10.5607 7.2392 10.7055 7.076C10.8359 6.928 11.0175 6.772 11.2015 6.6128L11.2271 6.5912L12.2079 5.7464C12.2676 5.69491 12.3368 5.65567 12.4116 5.63094C12.4865 5.60621 12.5654 5.59646 12.644 5.60226C12.7226 5.60805 12.7993 5.62927 12.8697 5.66471C12.9401 5.70015 13.0028 5.74911 13.0543 5.8088V5.808Z" fill="#2563EB"/>
</svg>
