<svg width="20" height="20" viewBox="0 0 20 20" fill="none" xmlns="http://www.w3.org/2000/svg">
<path d="M10 0C4.48586 0 0 4.48613 0 10.0003C0.000464134 15.514 4.48651 19.9998 10 19.9998C15.5141 19.9998 20.0001 15.5141 20.0001 10.0002C20 4.48613 15.5141 0 10 0ZM10 1.3924C12.0442 1.3924 13.9237 2.10912 15.4018 3.30389L3.30398 15.4016C2.1094 13.9236 1.39259 12.0442 1.3924 10.0002C1.3924 5.2539 5.25381 1.3924 10 1.3924ZM10 18.6074C7.79838 18.6074 5.78747 17.7761 4.26363 16.4113L16.4114 4.26354C17.7762 5.78738 18.6076 7.79847 18.6076 10.0003C18.6076 14.7463 14.7462 18.6074 10 18.6074Z" fill="#EF4444"/>
</svg>
