<svg width="11" height="11" viewBox="0 0 11 11" fill="none" xmlns="http://www.w3.org/2000/svg">
<path d="M10.1062 1.3825L9.1175 0.39375C8.5925 -0.13125 7.73938 -0.13125 7.21438 0.39375L5.55625 2.05625L0.660625 6.9475C0.231875 7.37625 0 7.94063 0 8.54438V10.0625C0 10.3031 0.196875 10.5 0.4375 10.5H1.95563C2.55938 10.5 3.12375 10.2638 3.5525 9.83937L8.44812 4.94813L10.1062 3.28562C10.36 3.03188 10.5 2.695 10.5 2.33625C10.5 1.9775 10.36 1.64062 10.1062 1.38688V1.3825ZM2.93125 9.21812C2.66875 9.48063 2.32313 9.625 1.95563 9.625H0.875V8.54438C0.875 8.17688 1.01937 7.82687 1.28187 7.56875L5.86687 2.98812L7.52063 4.64187L2.93563 9.22688L2.93125 9.21812ZM9.48938 2.66438L8.14188 4.01625L6.48812 2.3625L7.83562 1.01063C8.01937 0.826875 8.31688 0.826875 8.50063 1.01063L9.48938 1.99937C9.57688 2.08687 9.625 2.205 9.625 2.33187C9.625 2.45875 9.57688 2.5725 9.48938 2.66438ZM9.625 9.625H5.25C5.00938 9.625 4.8125 9.82187 4.8125 10.0625C4.8125 10.3031 5.00938 10.5 5.25 10.5H9.625C9.86563 10.5 10.0625 10.3031 10.0625 10.0625C10.0625 9.82187 9.86563 9.625 9.625 9.625Z" fill="#1E293B"/>
</svg>
