<svg width="160" height="44" viewBox="0 0 160 44" fill="none" xmlns="http://www.w3.org/2000/svg">
<path d="M1.15577 32.93L15.6843 43.2382L30.1796 32.8491L1.15577 12.3951V32.93ZM19.4623 3.55603L15.6555 0.761375L1.15577 11.049L5.07017 13.7929L19.4623 3.55603ZM10.3834 17.5192L24.7755 7.28236L20.9684 4.48771L6.46902 14.7753L10.3834 17.5192ZM15.7961 21.4276L30.1882 11.1908L26.3811 8.39611L11.8817 18.6837L15.7961 21.4276Z" fill="#4AA8FF"/>
<path d="M39.4783 10.2553C40.3189 8.39276 41.4912 6.94132 42.9949 5.90098C44.4987 4.86106 46.2034 4.34089 48.109 4.34089C50.4442 4.34089 52.4427 5.09514 54.1056 6.60363C55.7681 8.11212 56.8796 10.1693 57.4402 12.7748H52.1722C51.78 11.7692 51.2239 11.0037 50.5049 10.4776C49.7856 9.95201 48.9682 9.68899 48.0531 9.68899C46.5771 9.68899 45.3816 10.3178 44.4665 11.5746C43.5511 12.8318 43.0933 14.5119 43.0933 16.6144C43.0933 18.7177 43.5507 20.3978 44.4665 21.6541C45.3816 22.9113 46.5775 23.5397 48.0531 23.5397C48.9682 23.5397 49.7856 23.2776 50.5049 22.7511C51.2239 22.2259 51.78 21.4603 52.1722 20.454H57.4402C56.88 23.0598 55.7681 25.1116 54.1056 26.6083C52.4427 28.1055 50.4438 28.8539 48.109 28.8539C46.2034 28.8539 44.4987 28.3345 42.9949 27.2938C41.4912 26.2539 40.3189 24.8083 39.4783 22.9571C38.6376 21.1054 38.2172 18.9916 38.2172 16.6139C38.2172 14.2384 38.6376 12.1187 39.4783 10.2553Z" fill="black"/>
<path d="M65.174 24.1581H71.451V28.6835H60.3826V4.61566H65.1744L65.174 24.1581Z" fill="black"/>
<path d="M85.9943 24.432H78.6528L77.4757 28.6835H72.4597L79.5771 4.61566H85.1255L92.2429 28.684H87.171L85.9943 24.432ZM84.7614 19.9065L82.3234 11.0951L79.9138 19.9065H84.7614Z" fill="black"/>
<path d="M99.1926 4.61566V28.684H94.4008V4.61566H99.1926Z" fill="black"/>
<path d="M124.945 4.61566V28.684H120.152V14.2497L115.753 28.6835H111.886L107.459 14.2153V28.6835H102.667V4.61566H108.328L113.848 21.2783L119.312 4.61566H124.945Z" fill="black"/>
<path d="M133.183 24.1581H139.46V28.6835H128.391V4.61566H133.183L133.183 24.1581Z" fill="black"/>
<path d="M158.626 4.61566L151.817 20.7296V28.6835H147.025V20.7296L140.216 4.61566H145.652L149.463 14.6956L153.246 4.61566H158.626Z" fill="black"/>
<path d="M39.5499 39.2455C39.3733 39.1507 39.2345 39.0169 39.1337 38.8432C39.0329 38.6695 38.9825 38.4673 38.9825 38.2358H39.5595C39.5722 38.4094 39.6281 38.5521 39.7275 38.6641C39.8269 38.7761 39.9665 38.8319 40.1461 38.8319C40.3323 38.8319 40.4773 38.7769 40.5816 38.6666C40.6855 38.5567 40.7376 38.4149 40.7376 38.2412C40.7376 38.1062 40.7053 37.9962 40.6405 37.9115C40.5757 37.8268 40.4955 37.7613 40.3992 37.7148C40.3028 37.6686 40.1698 37.6183 39.9994 37.5642C39.7851 37.495 39.6106 37.4245 39.4769 37.3532C39.3428 37.2819 39.2287 37.1707 39.134 37.0201C39.0394 36.8699 38.9921 36.6694 38.9921 36.4181C38.9921 36.1866 39.0394 35.9844 39.134 35.8107C39.2287 35.637 39.361 35.5045 39.5314 35.4118C39.7018 35.3191 39.8986 35.2725 40.1225 35.2725C40.441 35.2725 40.7019 35.3698 40.9052 35.5649C41.1085 35.7595 41.2213 36.0272 41.2433 36.3661H40.6474C40.6381 36.2193 40.5812 36.0943 40.477 35.9902C40.3731 35.8862 40.2356 35.8342 40.0656 35.8342C39.9109 35.8342 39.7851 35.8824 39.6871 35.9789C39.589 36.0754 39.5403 36.2142 39.5403 36.3955C39.5403 36.5188 39.5712 36.6203 39.6325 36.6992C39.6939 36.7785 39.7721 36.8414 39.8667 36.8875C39.9613 36.9337 40.0906 36.9836 40.2545 37.0377C40.4722 37.1111 40.6495 37.1845 40.7866 37.2575C40.9237 37.3309 41.0403 37.4434 41.1367 37.5961C41.2327 37.7483 41.281 37.9522 41.281 38.2064C41.281 38.4107 41.2361 38.6037 41.1463 38.7853C41.0564 38.9669 40.9255 39.1121 40.7537 39.222C40.5819 39.3323 40.3793 39.3873 40.1458 39.3873C39.9253 39.3873 39.7265 39.3399 39.5499 39.2455Z" fill="black"/>
<path d="M44.1613 35.3249V39.3466H43.622V35.3249H44.1613Z" fill="black"/>
<path d="M50.0355 35.3249V39.3466H49.4962V36.5922L48.4937 39.3466H48.12L47.1127 36.5922V39.3466H46.5733V35.3249H47.1552L48.3092 38.4787L49.4585 35.3249H50.0355Z" fill="black"/>
<path d="M54.6281 37.101C54.5492 37.2827 54.423 37.4299 54.2496 37.544C54.0761 37.6577 53.8539 37.7148 53.5827 37.7148H52.9868V39.3466H52.4475V35.3249H53.5827C53.8351 35.3249 54.0486 35.3778 54.2235 35.4839C54.3987 35.59 54.5293 35.7339 54.6161 35.9147C54.7028 36.0964 54.746 36.299 54.746 36.5226C54.7464 36.7273 54.7066 36.9202 54.6281 37.101ZM54.0415 37.0058C54.1423 36.8921 54.1926 36.7311 54.1926 36.523C54.1926 36.0829 53.9893 35.8631 53.5824 35.8631H52.9865V37.177H53.5824C53.7877 37.1766 53.9407 37.1195 54.0415 37.0058Z" fill="black"/>
<path d="M57.5036 38.8138H58.6152V39.3466H56.9646V35.3249H57.504V38.8138H57.5036Z" fill="black"/>
<path d="M61.3062 35.3249V39.3466H60.7669V35.3249H61.3062Z" fill="black"/>
<path d="M65.6526 35.3249V35.8627H64.2576V37.049H65.3451V37.5872H64.2576V39.3462H63.7182V35.3245L65.6526 35.3249Z" fill="black"/>
<path d="M70.2922 35.3249L69.2046 37.888V39.3466H68.6653V37.888L67.5726 35.3249H68.1733L68.9348 37.2978L69.6963 35.3249H70.2922Z" fill="black"/>
<path d="M72.9599 35.3249V39.3466H72.4206V35.3249H72.9599Z" fill="black"/>
<path d="M78.0723 39.3466H77.5333L75.9113 36.3435V39.3466H75.3719V35.3191H75.9113L77.5333 38.3167V35.3191H78.0723V39.3466Z" fill="black"/>
<path d="M82.8637 36.4823C82.7783 36.2814 82.6601 36.1303 82.5089 36.028C82.3577 35.9256 82.1828 35.8749 81.9839 35.8749C81.7662 35.8749 81.5725 35.9349 81.4025 36.054C81.2321 36.1736 81.0987 36.3434 81.0027 36.5637C80.9067 36.7831 80.8583 37.0381 80.8583 37.3272C80.8583 37.6162 80.9067 37.8721 81.0027 38.094C81.0987 38.3155 81.2321 38.4866 81.4025 38.6062C81.5725 38.7257 81.7666 38.7857 81.9839 38.7857C82.2771 38.7857 82.5154 38.6855 82.6981 38.4845C82.8809 38.284 82.993 38.0122 83.0338 37.669H81.7991V37.1417H83.6108V37.6569C83.5758 37.9694 83.4853 38.2572 83.3386 38.5193C83.1918 38.7819 83.0015 38.9909 82.7663 39.1473C82.5311 39.3034 82.2706 39.3818 81.9836 39.3818C81.6747 39.3818 81.3925 39.2941 81.1371 39.1184C80.8817 38.943 80.679 38.6989 80.5295 38.3864C80.3794 38.0738 80.305 37.7211 80.305 37.3276C80.305 36.9341 80.3797 36.5813 80.5295 36.2688C80.6794 35.9563 80.8823 35.7125 81.1395 35.5368C81.3963 35.3614 81.6778 35.2733 81.9836 35.2733C82.3337 35.2733 82.645 35.3786 82.9179 35.5888C83.1908 35.7994 83.3886 36.0972 83.5114 36.4831H82.8637V36.4823Z" fill="black"/>
<path d="M89.3146 35.3249V39.3466H88.7752V35.3249H89.3146Z" fill="black"/>
<path d="M94.4272 39.3466H93.8883L92.2662 36.3435V39.3466H91.7269V35.3191H92.2662L93.8883 38.3167V35.3191H94.4272V39.3466Z" fill="black"/>
<path d="M97.3264 39.2455C97.1499 39.1507 97.0114 39.0169 96.9102 38.8432C96.8094 38.6695 96.759 38.4673 96.759 38.2358H97.3364C97.3487 38.4094 97.4046 38.5521 97.504 38.6641C97.6035 38.7761 97.7427 38.8319 97.9227 38.8319C98.1088 38.8319 98.2539 38.7769 98.3581 38.6666C98.4623 38.5567 98.5141 38.4149 98.5141 38.2412C98.5141 38.1062 98.4815 37.9962 98.4171 37.9115C98.3526 37.8268 98.272 37.7613 98.176 37.7148C98.08 37.6682 97.9467 37.6183 97.7763 37.5642C97.562 37.495 97.3878 37.4245 97.2538 37.3532C97.1197 37.2819 97.0055 37.1707 96.9109 37.0201C96.8166 36.8699 96.7693 36.6694 96.7693 36.4181C96.7693 36.1866 96.8166 35.9844 96.9109 35.8107C97.0055 35.637 97.1379 35.5045 97.3083 35.4118C97.4783 35.3191 97.6755 35.2725 97.8997 35.2725C98.2182 35.2725 98.4788 35.3698 98.6821 35.5649C98.8858 35.7595 98.9982 36.0272 99.0202 36.3661H98.4246C98.415 36.2193 98.3585 36.0943 98.2542 35.9902C98.15 35.8862 98.0132 35.8342 97.8428 35.8342C97.6885 35.8342 97.5623 35.8824 97.4643 35.9789C97.3662 36.0754 97.3175 36.2142 97.3175 36.3955C97.3175 36.5188 97.3484 36.6203 97.4101 36.6992C97.4715 36.7785 97.5493 36.8414 97.6443 36.8875C97.7386 36.9337 97.8678 36.9836 98.0321 37.0377C98.2498 37.1111 98.427 37.1845 98.5642 37.2575C98.7013 37.3309 98.8179 37.4434 98.9142 37.5961C99.0102 37.7483 99.0582 37.9522 99.0582 38.2064C99.0582 38.4107 99.0133 38.6037 98.9235 38.7853C98.8333 38.9669 98.7027 39.1121 98.5306 39.222C98.3588 39.3323 98.1562 39.3873 97.923 39.3873C97.7019 39.3873 97.5034 39.3399 97.3264 39.2455Z" fill="black"/>
<path d="M101.933 35.3249V37.888C101.933 38.193 101.999 38.4224 102.13 38.5768C102.261 38.7312 102.442 38.8084 102.676 38.8084C102.912 38.8084 103.096 38.7312 103.227 38.5768C103.358 38.4229 103.423 38.193 103.423 37.888V35.3249H103.962V37.8767C103.962 38.2047 103.903 38.4824 103.787 38.7098C103.67 38.9376 103.514 39.1071 103.319 39.2191C103.123 39.3311 102.907 39.3869 102.671 39.3869C102.434 39.3869 102.219 39.3306 102.025 39.2191C101.831 39.1075 101.677 38.9376 101.564 38.7098C101.45 38.4824 101.393 38.2047 101.393 37.8767V35.3249H101.933Z" fill="black"/>
<path d="M108.072 39.3466L107.316 37.7378H106.904V39.3466H106.365V35.3249H107.5C107.752 35.3249 107.966 35.379 108.141 35.4868C108.316 35.5951 108.447 35.7398 108.534 35.921C108.621 36.1022 108.664 36.3049 108.664 36.5284C108.664 36.7906 108.601 37.0289 108.477 37.2428C108.352 37.4572 108.161 37.6028 107.902 37.6799L108.716 39.3466H108.072ZM106.904 37.2114H107.5C107.702 37.2114 107.854 37.1497 107.956 37.0264C108.059 36.9026 108.11 36.7369 108.11 36.5284C108.11 36.32 108.06 36.1572 107.959 36.0393C107.858 35.9219 107.705 35.8627 107.5 35.8627H106.904V37.2114Z" fill="black"/>
<path d="M113.039 38.5248H111.662L111.426 39.3466H110.863L112.041 35.3191H112.665L113.843 39.3466H113.275L113.039 38.5248ZM112.887 37.9866L112.352 36.1178L111.813 37.9866H112.887Z" fill="black"/>
<path d="M118.756 39.3466H118.217L116.595 36.3435V39.3466H116.056V35.3191H116.595L118.217 38.3167V35.3191H118.756V39.3466Z" fill="black"/>
<path d="M121.213 36.2679C121.363 35.9554 121.566 35.7117 121.823 35.5359C122.08 35.3606 122.362 35.2725 122.667 35.2725C123.017 35.2725 123.329 35.3778 123.602 35.5879C123.875 35.7985 124.072 36.0964 124.195 36.4823H123.547C123.462 36.27 123.343 36.1119 123.192 36.0074C123.041 35.9034 122.866 35.8514 122.667 35.8514C122.45 35.8514 122.256 35.9114 122.086 36.0309C121.915 36.1505 121.782 36.3221 121.686 36.5461C121.59 36.7701 121.542 37.0302 121.542 37.3272C121.542 37.6242 121.59 37.8847 121.686 38.1083C121.782 38.3318 121.915 38.5047 122.086 38.6259C122.256 38.7476 122.45 38.8084 122.667 38.8084C122.866 38.8084 123.041 38.7564 123.192 38.6523C123.343 38.5483 123.462 38.3901 123.547 38.1779H124.195C124.072 38.5634 123.874 38.8604 123.602 39.0689C123.329 39.277 123.018 39.3814 122.667 39.3814C122.358 39.3814 122.076 39.2937 121.821 39.118C121.565 38.9426 121.363 38.6985 121.213 38.386C121.063 38.0734 120.989 37.7206 120.989 37.3272C120.989 36.9337 121.063 36.5805 121.213 36.2679Z" fill="black"/>
<path d="M127.067 35.8573V37.0377H128.202V37.5759H127.067V38.8084H128.344V39.3466H126.527V35.3191H128.344V35.8568L127.067 35.8573Z" fill="black"/>
<path d="M133.685 36.2679C133.835 35.9554 134.038 35.7117 134.295 35.5359C134.552 35.3606 134.834 35.2725 135.139 35.2725C135.49 35.2725 135.801 35.3778 136.074 35.5879C136.347 35.7985 136.544 36.0964 136.667 36.4823H136.019C135.934 36.27 135.816 36.1119 135.664 36.0074C135.513 35.9034 135.338 35.8514 135.139 35.8514C134.922 35.8514 134.728 35.9114 134.558 36.0309C134.388 36.1505 134.254 36.3221 134.158 36.5461C134.062 36.7701 134.014 37.0302 134.014 37.3272C134.014 37.6242 134.062 37.8847 134.158 38.1083C134.254 38.3318 134.388 38.5047 134.558 38.6259C134.728 38.7476 134.922 38.8084 135.139 38.8084C135.338 38.8084 135.513 38.7564 135.664 38.6523C135.816 38.5483 135.934 38.3901 136.019 38.1779H136.667C136.544 38.5634 136.346 38.8604 136.074 39.0689C135.801 39.277 135.49 39.3814 135.139 39.3814C134.831 39.3814 134.548 39.2937 134.293 39.118C134.038 38.9426 133.835 38.6985 133.685 38.386C133.535 38.0734 133.461 37.7206 133.461 37.3272C133.461 36.9337 133.536 36.5805 133.685 36.2679Z" fill="black"/>
<path d="M139.538 38.8138H140.65V39.3466H138.999V35.3249H139.538V38.8138Z" fill="black"/>
<path d="M144.783 38.5248H143.407L143.171 39.3466H142.608L143.786 35.3191H144.41L145.587 39.3466H145.02L144.783 38.5248ZM144.632 37.9866L144.097 36.1178L143.558 37.9866H144.632Z" fill="black"/>
<path d="M148.34 35.3249V39.3466H147.801V35.3249H148.34Z" fill="black"/>
<path d="M154.214 35.3249V39.3466H153.675V36.5922L152.672 39.3466H152.299L151.291 36.5922V39.3466H150.752V35.3249H151.334L152.488 38.4787L153.637 35.3249H154.214Z" fill="black"/>
<path d="M157.113 39.2455C156.937 39.1507 156.798 39.0169 156.697 38.8432C156.596 38.6695 156.546 38.4673 156.546 38.2358H157.123C157.135 38.4094 157.191 38.5521 157.291 38.6641C157.39 38.7761 157.529 38.8319 157.709 38.8319C157.896 38.8319 158.041 38.7769 158.145 38.6666C158.249 38.5567 158.301 38.4149 158.301 38.2412C158.301 38.1062 158.268 37.9962 158.204 37.9115C158.139 37.8268 158.059 37.7613 157.963 37.7148C157.867 37.6682 157.733 37.6183 157.563 37.5642C157.349 37.495 157.175 37.4245 157.04 37.3532C156.906 37.2819 156.792 37.1707 156.698 37.0201C156.603 36.8699 156.556 36.6694 156.556 36.4181C156.556 36.1866 156.603 35.9844 156.698 35.8107C156.792 35.637 156.925 35.5045 157.095 35.4118C157.265 35.3191 157.462 35.2725 157.686 35.2725C158.005 35.2725 158.265 35.3698 158.469 35.5649C158.672 35.7595 158.785 36.0272 158.807 36.3661H158.211C158.202 36.2193 158.145 36.0943 158.041 35.9902C157.937 35.8862 157.8 35.8342 157.629 35.8342C157.475 35.8342 157.349 35.8824 157.251 35.9789C157.153 36.0754 157.104 36.2142 157.104 36.3955C157.104 36.5188 157.135 36.6203 157.197 36.6992C157.258 36.7785 157.336 36.8414 157.431 36.8875C157.525 36.9337 157.655 36.9836 157.819 37.0377C158.036 37.1111 158.214 37.1845 158.351 37.2575C158.488 37.3309 158.605 37.4434 158.701 37.5961C158.797 37.7483 158.845 37.9522 158.845 38.2064C158.845 38.4107 158.8 38.6037 158.71 38.7853C158.62 38.9669 158.489 39.1121 158.317 39.222C158.145 39.3323 157.943 39.3873 157.71 39.3873C157.489 39.3873 157.29 39.3399 157.113 39.2455Z" fill="black"/>
</svg>
