<svg width="20" height="20" viewBox="0 0 20 20" fill="none" xmlns="http://www.w3.org/2000/svg">
<path d="M10.3431 18.0944C7.87932 18.237 5.40735 18.072 2.98437 17.6031C2.83955 17.5766 2.70884 17.4996 2.61555 17.3857C2.52226 17.2718 2.47245 17.1284 2.475 16.9812V16.2125C2.475 13.5556 4.63937 11.3937 7.3 11.3937H9.99375C10.8497 11.3948 11.6903 11.6209 12.4312 12.0494C12.4953 12.0888 12.5666 12.1151 12.6409 12.1265C12.7153 12.1379 12.7912 12.1343 12.8641 12.1159C12.937 12.0975 13.0055 12.0646 13.0655 12.0193C13.1255 11.9739 13.1758 11.917 13.2135 11.8519C13.2511 11.7867 13.2753 11.7147 13.2846 11.6401C13.2939 11.5654 13.2881 11.4897 13.2676 11.4173C13.2471 11.3449 13.2124 11.2774 13.1653 11.2187C13.1183 11.16 13.0599 11.1114 12.9937 11.0756C12.5585 10.8255 12.0936 10.6309 11.61 10.4962C12.3504 10.007 12.958 9.34191 13.3786 8.56046C13.7991 7.77902 14.0195 6.90554 14.02 6.01811C14.02 3.05499 11.6094 0.643738 8.64625 0.643738C5.68312 0.643738 3.27125 3.05436 3.27125 6.01811C3.27176 6.90592 3.49233 7.77976 3.91322 8.56146C4.33412 9.34316 4.94222 10.0083 5.68312 10.4975C3.18687 11.2031 1.35 13.495 1.35 16.2125V16.9812C1.35 17.8281 1.95062 18.555 2.77375 18.7081C5.28689 19.1942 7.85083 19.3651 10.4062 19.2169C10.5552 19.2085 10.6947 19.1413 10.7941 19.0301C10.8935 18.9188 10.9446 18.7727 10.9362 18.6237C10.9271 18.4752 10.8596 18.3362 10.7485 18.2371C10.6375 18.138 10.4918 18.0867 10.3431 18.0944ZM4.39625 6.01811C4.39625 3.67499 6.3025 1.76874 8.64562 1.76874C10.9887 1.76874 12.8944 3.67499 12.8944 6.01811C12.8944 8.36124 10.9881 10.2669 8.64562 10.2669C7.51908 10.2657 6.439 9.81772 5.64236 9.02119C4.84572 8.22467 4.39757 7.14465 4.39625 6.01811Z" fill="url(#paint0_linear_17550_4356)"/>
<path d="M18.5225 15.3331L18.0525 15.2069C17.9842 14.9357 17.8773 14.6757 17.735 14.435L17.9769 14.0156C17.9958 13.9828 18.0033 13.9447 17.9984 13.9072C17.9934 13.8697 17.9762 13.8348 17.9494 13.8081L17.3425 13.2012C17.3158 13.1744 17.2809 13.1572 17.2434 13.1523C17.2059 13.1473 17.1678 13.1548 17.135 13.1737L16.7156 13.4156C16.475 13.273 16.215 13.1661 15.9437 13.0981L15.8175 12.6281C15.8077 12.5915 15.7861 12.5592 15.756 12.5361C15.726 12.513 15.6891 12.5006 15.6512 12.5006H14.7931C14.7552 12.5006 14.7184 12.513 14.6883 12.5361C14.6583 12.5592 14.6367 12.5915 14.6269 12.6281L14.5006 13.0981C14.2319 13.1662 13.9725 13.2712 13.7287 13.4162L13.3094 13.1744C13.2766 13.1555 13.2385 13.1479 13.201 13.1529C13.1634 13.1579 13.1286 13.1751 13.1019 13.2019L12.495 13.8087C12.4682 13.8355 12.451 13.8703 12.446 13.9078C12.441 13.9453 12.4486 13.9834 12.4675 14.0162L12.7094 14.4356C12.5644 14.68 12.4594 14.9394 12.3919 15.2075L11.9219 15.3337C11.8853 15.3435 11.8529 15.3651 11.8299 15.3952C11.8068 15.4253 11.7943 15.4621 11.7944 15.5V16.3581C11.7944 16.4362 11.8469 16.5044 11.9219 16.5244L12.3919 16.6506C12.46 16.9194 12.565 17.1787 12.7094 17.4225L12.4675 17.8419C12.4486 17.8747 12.441 17.9128 12.446 17.9503C12.451 17.9878 12.4682 18.0226 12.495 18.0494L13.1019 18.6562C13.1286 18.683 13.1634 18.7002 13.201 18.7052C13.2385 18.7102 13.2766 18.7026 13.3094 18.6837L13.7281 18.4419C13.9694 18.5862 14.2287 18.6931 14.5012 18.7625L14.6262 19.2294C14.6462 19.3044 14.7144 19.3569 14.7925 19.3569H15.6506C15.6885 19.3569 15.7254 19.3444 15.7554 19.3214C15.7855 19.2983 15.8071 19.266 15.8169 19.2294L15.9419 18.7619C16.2139 18.6934 16.4743 18.5853 16.715 18.4412L17.1344 18.6831C17.1672 18.702 17.2053 18.7096 17.2428 18.7046C17.2803 18.6996 17.3151 18.6824 17.3419 18.6556L17.9487 18.0487C17.9755 18.022 17.9928 17.9872 17.9977 17.9497C18.0027 17.9121 17.9951 17.874 17.9762 17.8412L17.7344 17.4219C17.8794 17.1775 17.9844 16.9187 18.0519 16.65L18.5219 16.5237C18.5585 16.514 18.5908 16.4923 18.6139 16.4623C18.6369 16.4322 18.6494 16.3954 18.6494 16.3575V15.4994C18.6496 15.4615 18.6372 15.4247 18.6143 15.3946C18.5913 15.3645 18.559 15.3429 18.5225 15.3331ZM16.5006 17.2069C15.8175 17.89 14.6269 17.89 13.9437 17.2069C13.6055 16.8674 13.4155 16.4077 13.4155 15.9284C13.4155 15.4492 13.6055 14.9895 13.9437 14.65C14.2962 14.2981 14.7594 14.1212 15.2219 14.1212C15.6844 14.1212 16.1481 14.2975 16.5006 14.65C16.8389 14.9895 17.0288 15.4492 17.0288 15.9284C17.0288 16.4077 16.8389 16.8674 16.5006 17.2069Z" fill="url(#paint1_linear_17550_4356)"/>
<defs>
<linearGradient id="paint0_linear_17550_4356" x1="1.35" y1="9.95615" x2="14.02" y2="9.95615" gradientUnits="userSpaceOnUse">
<stop stop-color="#1E293B"/>
<stop offset="1" stop-color="#2563EB"/>
</linearGradient>
<linearGradient id="paint1_linear_17550_4356" x1="11.7944" y1="15.9287" x2="18.6494" y2="15.9287" gradientUnits="userSpaceOnUse">
<stop stop-color="#1E293B"/>
<stop offset="1" stop-color="#2563EB"/>
</linearGradient>
</defs>
</svg>
