<svg width="20" height="20" viewBox="0 0 20 20" fill="none" xmlns="http://www.w3.org/2000/svg">
<path d="M10 1.25001C8.46956 1.24798 6.96544 1.648 5.6382 2.41003C4.31096 3.17205 3.20717 4.26935 2.43733 5.59208C1.6675 6.9148 1.25862 8.41654 1.25162 9.94697C1.24463 11.4774 1.63978 12.9828 2.3975 14.3125L1.88375 17.3944C1.86825 17.4923 1.87614 17.5925 1.90677 17.6869C1.9374 17.7812 1.9899 17.8669 2.05999 17.937C2.13007 18.0072 2.21576 18.0598 2.31005 18.0905C2.40433 18.1212 2.50454 18.1292 2.6025 18.1138L5.6875 17.6031C6.85213 18.2644 8.15306 18.6494 9.49001 18.7285C10.8269 18.8076 12.1642 18.5786 13.3986 18.0592C14.6331 17.5398 15.7318 16.7438 16.61 15.7327C17.4883 14.7216 18.1226 13.5223 18.4641 12.2273C18.8056 10.9323 18.8452 9.57614 18.5798 8.26342C18.3144 6.95071 17.751 5.71648 16.9332 4.65587C16.1155 3.59526 15.065 2.73661 13.863 2.14611C12.6609 1.55561 11.3393 1.24903 10 1.25001ZM10 17.5C8.63493 17.4979 7.29643 17.1225 6.12938 16.4144C6.0317 16.3554 5.91973 16.3243 5.80562 16.3244C5.77125 16.3244 3.26063 16.74 3.26063 16.74L3.6675 14.2969C3.69201 14.1496 3.66296 13.9984 3.58563 13.8706C2.7318 12.452 2.37183 10.7906 2.56195 9.14581C2.75206 7.50103 3.48155 5.96552 4.63648 4.77911C5.79141 3.59269 7.30675 2.82218 8.94582 2.5879C10.5849 2.35363 12.2554 2.66879 13.6965 3.48416C15.1375 4.29953 16.2679 5.5692 16.9112 7.09487C17.5545 8.62053 17.6744 10.3163 17.2521 11.9173C16.8299 13.5183 15.8893 14.9343 14.5773 15.9443C13.2653 16.9543 11.6557 17.5014 10 17.5Z" fill="url(#paint0_linear_17550_4334)"/>
<path d="M10.4481 5.89877C10.0877 5.8331 9.71726 5.84745 9.363 5.94079C9.00873 6.03414 8.67932 6.20421 8.39806 6.43896C8.1168 6.67371 7.89057 6.96741 7.73538 7.29927C7.58019 7.63113 7.49984 7.99304 7.5 8.35939C7.5 8.52515 7.56585 8.68412 7.68306 8.80133C7.80027 8.91854 7.95924 8.98439 8.125 8.98439C8.29076 8.98439 8.44973 8.91854 8.56694 8.80133C8.68415 8.68412 8.75 8.52515 8.75 8.35939C8.74984 8.1755 8.79026 7.99384 8.86837 7.82737C8.94648 7.66089 9.06036 7.5137 9.20189 7.39629C9.34341 7.27887 9.5091 7.19413 9.68714 7.14811C9.86518 7.10208 10.0512 7.09591 10.2319 7.13002C10.4792 7.17816 10.7065 7.29906 10.8847 7.47722C11.0628 7.65539 11.1837 7.8827 11.2319 8.13002C11.2811 8.38902 11.2471 8.65694 11.1348 8.89548C11.0226 9.13402 10.8378 9.33096 10.6069 9.45814C10.2421 9.64432 9.93481 9.92614 9.71783 10.2735C9.50085 10.6208 9.38235 11.0206 9.375 11.43V11.6406C9.375 11.8064 9.44085 11.9654 9.55806 12.0826C9.67527 12.1998 9.83424 12.2656 10 12.2656C10.1658 12.2656 10.3247 12.1998 10.4419 12.0826C10.5592 11.9654 10.625 11.8064 10.625 11.6406V11.43C10.6336 11.2446 10.6921 11.0649 10.7945 10.91C10.8968 10.7551 11.0391 10.6307 11.2063 10.55C11.6591 10.3013 12.0237 9.91843 12.2501 9.45402C12.4764 8.98961 12.5533 8.46649 12.4702 7.9566C12.3871 7.4467 12.148 6.97508 11.7859 6.60658C11.4238 6.23808 10.9565 5.99081 10.4481 5.89877ZM9.55625 13.3063C9.47851 13.3873 9.42371 13.4875 9.39747 13.5967C9.37124 13.7059 9.3745 13.8201 9.40694 13.9275C9.43938 14.035 9.49983 14.132 9.58207 14.2084C9.66432 14.2848 9.76542 14.338 9.875 14.3625C9.91634 14.3695 9.9581 14.3737 10 14.375C10.1653 14.3734 10.3233 14.307 10.4401 14.1902C10.557 14.0733 10.6234 13.9153 10.625 13.75C10.6257 13.6259 10.5895 13.5043 10.5208 13.4009C10.4522 13.2974 10.3543 13.2168 10.2397 13.1692C10.125 13.1216 9.99879 13.1092 9.87707 13.1336C9.75536 13.158 9.64367 13.2181 9.55625 13.3063Z" fill="url(#paint1_linear_17550_4334)"/>
<defs>
<linearGradient id="paint0_linear_17550_4334" x1="1.25153" y1="9.99688" x2="18.7533" y2="9.99688" gradientUnits="userSpaceOnUse">
<stop stop-color="#1E293B"/>
<stop offset="1" stop-color="#2563EB"/>
</linearGradient>
<linearGradient id="paint1_linear_17550_4334" x1="7.5" y1="10.1166" x2="12.5027" y2="10.1166" gradientUnits="userSpaceOnUse">
<stop stop-color="#1E293B"/>
<stop offset="1" stop-color="#2563EB"/>
</linearGradient>
</defs>
</svg>
