<svg width="20" height="20" viewBox="0 0 20 20" fill="none" xmlns="http://www.w3.org/2000/svg">
<path d="M15.7895 4.24554C14.098 3.7532 12.4621 3.08685 10.9081 2.25718C10.6351 2.08903 10.3207 2 10 2C9.67933 2 9.36495 2.08903 9.09189 2.25718C7.53782 3.08678 5.90196 3.75313 4.21053 4.24554C3.85035 4.35943 3.53724 4.58789 3.31887 4.89615C3.10051 5.20441 2.98884 5.57557 3.00088 5.95315L3.19151 11.7068C3.61668 14.5975 6.64832 17.0076 8.41832 18.1872C8.88644 18.5002 9.43689 18.6672 10 18.6672C10.5631 18.6672 11.1136 18.5002 11.5817 18.1872C13.3517 17.0087 16.3833 14.5975 16.8143 11.6409L16.9991 5.95315C17.0112 5.57557 16.8995 5.20441 16.6811 4.89615C16.4628 4.58789 16.1497 4.35943 15.7895 4.24554ZM15.6647 11.5381C15.3054 13.9875 12.551 16.1526 10.9405 17.2248C10.662 17.4112 10.3345 17.5107 9.99942 17.5107C9.66435 17.5107 9.33682 17.4112 9.05839 17.2248C7.44898 16.1526 4.69463 13.9875 4.34109 11.604L4.15623 5.91618C4.15197 5.79084 4.1887 5.66754 4.26084 5.56496C4.33298 5.46238 4.4366 5.38612 4.55598 5.34774C6.33802 4.82759 8.06047 4.12164 9.69499 3.24154C9.78606 3.18329 9.8919 3.15234 10 3.15234C10.1081 3.15234 10.2139 3.18329 10.305 3.24154C11.9399 4.1218 13.6627 4.82774 15.4452 5.34774C15.5646 5.38612 15.6682 5.46238 15.7403 5.56496C15.8125 5.66754 15.8492 5.79084 15.8449 5.91618L15.6647 11.5381ZM11.0213 9.35797C11.0193 9.52039 10.9778 9.67988 10.9005 9.82275C10.8233 9.96563 10.7125 10.0876 10.5777 10.1783V11.7495C10.5777 11.9028 10.5168 12.0497 10.4085 12.158C10.3001 12.2664 10.1532 12.3272 10 12.3272C9.84679 12.3272 9.69986 12.2664 9.59152 12.158C9.48319 12.0497 9.42232 11.9028 9.42232 11.7495V10.1783C9.28753 10.0876 9.17675 9.96563 9.09947 9.82275C9.0222 9.67988 8.98075 9.52039 8.97867 9.35797C8.97867 9.08709 9.08627 8.82731 9.27781 8.63578C9.46935 8.44424 9.72913 8.33664 10 8.33664C10.2709 8.33664 10.5307 8.44424 10.7222 8.63578C10.9137 8.82731 11.0213 9.08709 11.0213 9.35797Z" fill="url(#paint0_linear_17550_4347)"/>
<defs>
<linearGradient id="paint0_linear_17550_4347" x1="3" y1="10.3336" x2="17" y2="10.3336" gradientUnits="userSpaceOnUse">
<stop stop-color="#1E293B"/>
<stop offset="1" stop-color="#2563EB"/>
</linearGradient>
</defs>
</svg>
