<svg width="20" height="20" viewBox="0 0 20 20" fill="none" xmlns="http://www.w3.org/2000/svg">
<path d="M4.78086 6.47577H14.3461C14.7559 6.47577 15.0883 6.14335 15.0883 5.73358C15.0883 5.32382 14.7559 4.99139 14.3461 4.99139H4.78086C4.3711 4.99139 4.03867 5.32382 4.03867 5.73358C4.03867 6.14335 4.3711 6.47577 4.78086 6.47577ZM11.2 10.3601C11.2 9.95038 10.8676 9.61796 10.4578 9.61796H4.78086C4.3711 9.61796 4.03867 9.95038 4.03867 10.3601C4.03867 10.7699 4.3711 11.1023 4.78086 11.1023H10.4578C10.8676 11.1023 11.2 10.7699 11.2 10.3601Z" fill="url(#paint0_linear_17550_4341)"/>
<path d="M19.009 12.6449C19.0887 11.7727 19.1422 10.7563 19.1434 9.57148C19.141 7.34219 18.9539 5.70977 18.7543 4.51016C18.4051 2.53359 16.6098 0.738281 14.6332 0.389062C13.4336 0.189453 11.8012 0.00234375 9.57148 0C7.34219 0.00234375 5.70937 0.189453 4.50977 0.389062C2.53359 0.738281 0.738281 2.53359 0.389062 4.51016C0.189453 5.70977 0.00273437 7.34219 0 9.57148C0.00273437 11.8008 0.189453 13.4336 0.389062 14.6332C0.738281 16.6098 2.53359 18.4051 4.51016 18.7543C5.70977 18.9539 7.34219 19.1406 9.57187 19.1434C10.7562 19.1422 11.7727 19.0887 12.6445 19.009C13.4195 19.6289 14.4023 20 15.4719 20C17.9727 20 20.0004 17.9727 20.0004 15.4719C20.0004 14.4023 19.6293 13.4195 19.0094 12.6449H19.009ZM9.57187 17.659C7.81328 17.657 6.23984 17.5367 4.76211 17.2914C4.10547 17.1738 3.44023 16.8055 2.88906 16.2543C2.33789 15.7031 1.96992 15.0383 1.85195 14.3813C1.60664 12.9051 1.48672 11.3316 1.48438 9.57148C1.48633 7.81211 1.60664 6.23867 1.85195 4.76172C1.96953 4.10508 2.33789 3.44023 2.88906 2.88906C3.44023 2.33789 4.10508 1.96992 4.76211 1.85195C6.23906 1.60664 7.8125 1.48672 9.57187 1.48438C11.3305 1.48633 12.9039 1.60664 14.3816 1.85195C15.0383 1.96953 15.7031 2.33789 16.2547 2.88906C16.8059 3.44023 17.1738 4.10508 17.2918 4.76211C17.5371 6.23984 17.657 7.81289 17.6594 9.57187C17.6586 10.232 17.6406 10.8652 17.6063 11.4777C16.9703 11.1371 16.2437 10.9441 15.4719 10.9441C12.9711 10.9441 10.9434 12.9715 10.9434 15.4723C10.9434 16.2441 11.1367 16.9703 11.477 17.6063C10.8645 17.6406 10.2312 17.6586 9.57148 17.659H9.57187ZM15.4719 18.5156C13.7934 18.5156 12.4277 17.1504 12.4277 15.4719C12.4277 13.7934 13.7934 12.4281 15.4719 12.4281C17.1504 12.4281 18.516 13.7934 18.516 15.4719C18.516 17.1504 17.1504 18.5156 15.4719 18.5156Z" fill="url(#paint1_linear_17550_4341)"/>
<path d="M15.8703 16.3375C15.7758 16.3219 15.6473 16.307 15.4719 16.307C15.2965 16.307 15.168 16.3219 15.0734 16.3375C14.918 16.3648 14.7766 16.5062 14.7488 16.6621C14.7332 16.7566 14.7184 16.8851 14.7184 17.0605C14.7184 17.2359 14.7332 17.3644 14.7488 17.459C14.7762 17.6144 14.9176 17.7558 15.0734 17.7836C15.168 17.7992 15.2965 17.8141 15.4719 17.8141C15.6473 17.8141 15.7758 17.7992 15.8703 17.7836C16.0258 17.7562 16.1672 17.6148 16.1949 17.459C16.2105 17.3644 16.2254 17.2359 16.2254 17.0605C16.2254 16.8851 16.2105 16.7566 16.1949 16.6621C16.1676 16.5066 16.0262 16.3652 15.8703 16.3375ZM15.4715 15.8449C15.8813 15.8449 16.2137 15.5125 16.2137 15.1027V13.8644C16.2137 13.4547 15.8813 13.1223 15.4715 13.1223C15.0617 13.1223 14.7293 13.4547 14.7293 13.8644V15.1027C14.7293 15.5125 15.0617 15.8449 15.4715 15.8449Z" fill="url(#paint2_linear_17550_4341)"/>
<defs>
<linearGradient id="paint0_linear_17550_4341" x1="4.03867" y1="8.04686" x2="15.0883" y2="8.04686" gradientUnits="userSpaceOnUse">
<stop stop-color="#1E293B"/>
<stop offset="1" stop-color="#2563EB"/>
</linearGradient>
<linearGradient id="paint1_linear_17550_4341" x1="0" y1="10" x2="20.0004" y2="10" gradientUnits="userSpaceOnUse">
<stop stop-color="#1E293B"/>
<stop offset="1" stop-color="#2563EB"/>
</linearGradient>
<linearGradient id="paint2_linear_17550_4341" x1="14.7184" y1="15.4682" x2="16.2254" y2="15.4682" gradientUnits="userSpaceOnUse">
<stop stop-color="#1E293B"/>
<stop offset="1" stop-color="#2563EB"/>
</linearGradient>
</defs>
</svg>
