<svg width="24" height="24" viewBox="0 0 24 24" fill="none" xmlns="http://www.w3.org/2000/svg">
<rect x="0.35" y="0.35" width="23.3" height="23.3" rx="3.65" stroke="#64748B" stroke-width="0.7"/>
<g clip-path="url(#clip0_17105_5011)">
<path d="M7.66792 18.4166H9.25648C9.506 18.4166 9.70842 18.2286 9.70842 17.9791C9.70842 17.7296 9.50615 17.5416 9.25648 17.5416H7.66792C6.99912 17.5416 6.45837 16.948 6.45837 16.2537V9.81242H17.3959V11.4577C17.3959 11.7072 17.6568 11.9096 17.9063 11.9096C18.1558 11.9096 18.4167 11.7074 18.4167 11.4577V7.75529C18.4167 6.57798 17.3103 5.58325 16.1455 5.58325H7.66792C6.50081 5.58325 5.58337 6.55756 5.58337 7.75529V16.2537C5.58337 17.4464 6.50081 18.4166 7.66792 18.4166ZM6.45837 7.75529C6.45837 7.06784 7.0105 6.45825 7.66792 6.45825H16.1455C16.8203 6.45825 17.3959 7.06784 17.3959 7.75529V8.93742H6.45837V7.75529Z" fill="#64748B"/>
<path d="M15.8539 7.33325H15.6733C15.4237 7.33325 15.2213 7.59415 15.2213 7.84367C15.2213 8.09319 15.4236 8.35409 15.6733 8.35409H15.8539C16.1035 8.35409 16.3059 8.09319 16.3059 7.84367C16.3059 7.59415 16.1035 7.33325 15.8539 7.33325ZM14.3176 7.33325H14.1369C13.8874 7.33325 13.685 7.59415 13.685 7.84367C13.685 8.09319 13.8872 8.35409 14.1369 8.35409H14.3176C14.5671 8.35409 14.7695 8.09319 14.7695 7.84367C14.7695 7.59415 14.5671 7.33325 14.3176 7.33325ZM12.6908 7.33325H12.5101C12.2606 7.33325 12.0582 7.59415 12.0582 7.84367C12.0582 8.09319 12.2605 8.35409 12.5101 8.35409H12.6908C12.9403 8.35409 13.1428 8.09319 13.1428 7.84367C13.1428 7.59415 12.9403 7.33325 12.6908 7.33325ZM13.8954 11.8738C11.9138 11.8738 10.1042 13.1182 9.375 14.9704C9.375 14.9704 10.3236 18.4637 13.8954 18.3876C17.6693 18.3072 18.4167 14.9704 18.4167 14.9704C17.6875 13.1182 15.8776 11.8738 13.8954 11.8738ZM13.9276 17.4838C12.3768 17.4838 10.9605 16.5451 10.3495 15.1307C10.9604 13.7162 12.3768 12.7775 13.9276 12.7775C15.4789 12.7775 16.8955 13.7162 17.5065 15.1307C16.8956 16.5451 15.4789 17.4838 13.9276 17.4838Z" fill="#64748B"/>
<path d="M13.9281 13.3772C12.9612 13.3772 12.1746 14.1637 12.1746 15.1306C12.1746 16.0974 12.9612 16.8839 13.9281 16.8839C14.8949 16.8839 15.6814 16.0974 15.6814 15.1306C15.6814 14.1637 14.8949 13.3772 13.9281 13.3772ZM13.9281 15.9802C13.4595 15.9802 13.0783 15.599 13.0783 15.1306C13.0783 14.6621 13.4595 14.2809 13.9281 14.2809C14.3966 14.2809 14.7777 14.6621 14.7777 15.1306C14.7777 15.599 14.3966 15.9802 13.9281 15.9802Z" fill="#64748B"/>
</g>
<defs>
<clipPath id="clip0_17105_5011">
<rect width="14" height="14" fill="white" transform="translate(5 5)"/>
</clipPath>
</defs>
</svg>
