<svg width="16" height="16" viewBox="0 0 16 16" fill="none" xmlns="http://www.w3.org/2000/svg">
<path d="M8 0C3.58867 0 0 3.58867 0 8C0 12.4113 3.58867 16 8 16C12.4113 16 16 12.4113 16 8C16 3.58867 12.4113 0 8 0ZM8 15.3333C3.95667 15.3333 0.666667 12.0433 0.666667 8C0.666667 3.95667 3.95667 0.666667 8 0.666667C12.0433 0.666667 15.3333 3.95667 15.3333 8C15.3333 12.0433 12.0433 15.3333 8 15.3333ZM11.3333 8C11.3333 8.184 11.184 8.33333 11 8.33333H8.33333V11C8.33333 11.184 8.184 11.3333 8 11.3333C7.816 11.3333 7.66667 11.184 7.66667 11V8.33333H5C4.816 8.33333 4.66667 8.184 4.66667 8C4.66667 7.816 4.816 7.66667 5 7.66667H7.66667V5C7.66667 4.816 7.816 4.66667 8 4.66667C8.184 4.66667 8.33333 4.816 8.33333 5V7.66667H11C11.184 7.66667 11.3333 7.816 11.3333 8Z" fill="white"/>
</svg>
