<svg width="24" height="24" viewBox="0 0 24 24" fill="none" xmlns="http://www.w3.org/2000/svg">
<rect x="0.35" y="0.35" width="23.3" height="23.3" rx="3.65" stroke="#64748B" stroke-width="0.7"/>
<path fill-rule="evenodd" clip-rule="evenodd" d="M7.62257 16.8282C7.83519 14.611 9.70551 12.875 11.9779 12.875C12.1236 12.875 12.2675 12.882 12.4097 12.896C12.4675 12.9029 12.5262 12.8982 12.5822 12.8822C12.6382 12.8662 12.6904 12.8391 12.7358 12.8027C12.7812 12.7662 12.8189 12.721 12.8466 12.6697C12.8743 12.6185 12.8915 12.5623 12.8972 12.5043C12.9029 12.4463 12.8969 12.3878 12.8797 12.3321C12.8624 12.2765 12.8343 12.2249 12.7968 12.1803C12.7593 12.1356 12.7134 12.099 12.6615 12.0724C12.6097 12.0458 12.5531 12.0298 12.495 12.0254C12.3231 12.0085 12.1506 12.0001 11.9779 12C9.25051 12 7.00657 14.0838 6.75194 16.7447C6.74465 16.8028 6.74909 16.8617 6.76498 16.918C6.78088 16.9744 6.80792 17.0269 6.8445 17.0726C6.88108 17.1183 6.92646 17.1562 6.97794 17.184C7.02943 17.2119 7.08597 17.2291 7.14424 17.2347C7.2025 17.2403 7.26129 17.2341 7.31713 17.2166C7.37297 17.1991 7.42472 17.1705 7.46933 17.1326C7.51393 17.0947 7.55047 17.0482 7.5768 16.996C7.60312 16.9437 7.61868 16.8867 7.62257 16.8282ZM11.956 6.75C10.507 6.75 9.33101 7.92644 9.33101 9.375C9.33101 10.8236 10.507 12 11.956 12C13.4046 12 14.581 10.8236 14.581 9.375C14.581 7.92644 13.4046 6.75 11.956 6.75ZM11.956 7.625C12.922 7.625 13.706 8.409 13.706 9.375C13.706 10.341 12.922 11.125 11.956 11.125C10.99 11.125 10.206 10.341 10.206 9.375C10.206 8.409 10.99 7.625 11.956 7.625ZM14.4012 13.3077C13.2948 13.3077 12.3239 14.2072 11.8864 14.7116L11.8838 14.7147C11.7501 14.8714 11.6767 15.0708 11.6768 15.2768C11.677 15.4829 11.7507 15.6821 11.8847 15.8386L11.8864 15.8404C12.3235 16.3453 13.2948 17.2452 14.4012 17.2452C15.5076 17.2452 16.4784 16.3457 16.9159 15.8413L16.9186 15.8382C17.0523 15.6814 17.1257 15.4821 17.1256 15.2761C17.1254 15.07 17.0517 14.8708 16.9177 14.7143L16.9159 14.7125C16.4789 14.2076 15.5076 13.3077 14.4012 13.3077ZM16.2474 15.2769C15.9167 15.6566 15.2233 16.3702 14.4012 16.3702C13.5791 16.3702 12.8853 15.6562 12.5549 15.276C12.8857 14.8963 13.5791 14.1827 14.4012 14.1827C15.2233 14.1827 15.9171 14.8967 16.2474 15.2769Z" fill="#64748B"/>
<path d="M14.4014 15.8232C14.7034 15.8232 14.9482 15.5784 14.9482 15.2764C14.9482 14.9743 14.7034 14.7295 14.4014 14.7295C14.0993 14.7295 13.8545 14.9743 13.8545 15.2764C13.8545 15.5784 14.0993 15.8232 14.4014 15.8232Z" fill="#64748B"/>
</svg>
